<svg xmlns="http://www.w3.org/2000/svg" xmlns:xlink="http://www.w3.org/1999/xlink" width="1587" zoomAndPan="magnify" viewBox="0 0 1190.25 1683.749949" height="2245" preserveAspectRatio="xMidYMid meet" version="1.0"><defs><clipPath id="46d2495522"><path d="M 0 0.40625 L 1189.5 0.40625 L 1189.5 1683.09375 L 0 1683.09375 Z M 0 0.40625 " clip-rule="nonzero"/></clipPath><clipPath id="26d816549c"><path d="M 0 0.40625 L 1189.199219 0.40625 L 1189.199219 1682.667969 L 0 1682.667969 Z M 0 0.40625 " clip-rule="nonzero"/></clipPath><clipPath id="944bc3c149"><path d="M 418 904 L 580 904 L 580 1071 L 418 1071 Z M 418 904 " clip-rule="nonzero"/></clipPath><clipPath id="2c62834d46"><path d="M 415.175781 907.101562 L 578.503906 904.234375 L 581.375 1067.5625 L 418.042969 1070.433594 Z M 415.175781 907.101562 " clip-rule="nonzero"/></clipPath><clipPath id="06cdccd85c"><path d="M 415.175781 907.101562 L 578.503906 904.234375 L 581.375 1067.5625 L 418.042969 1070.433594 Z M 415.175781 907.101562 " clip-rule="nonzero"/></clipPath><clipPath id="c2f995b1bf"><path d="M 418 1068 L 495 1068 L 495 1301 L 418 1301 Z M 418 1068 " clip-rule="nonzero"/></clipPath><clipPath id="18615b57fc"><path d="M 418.015625 1070.226562 L 490.445312 1068.953125 L 494.5 1299.613281 L 422.070312 1300.882812 Z M 418.015625 1070.226562 " clip-rule="nonzero"/></clipPath><clipPath id="d6cddf7e66"><path d="M 0 0.933594 L 76.566406 0.933594 L 76.566406 233 L 0 233 Z M 0 0.933594 " clip-rule="nonzero"/></clipPath><clipPath id="74d73d67c8"><path d="M 0.015625 2.226562 L 72.445312 0.953125 L 76.5 231.613281 L 4.070312 232.882812 Z M 0.015625 2.226562 " clip-rule="nonzero"/></clipPath><clipPath id="a0b613dc52"><rect x="0" width="77" y="0" height="233"/></clipPath><clipPath id="31af9b612a"><path d="M 510 1161 L 553 1161 L 553 1205 L 510 1205 Z M 510 1161 " clip-rule="nonzero"/></clipPath><clipPath id="d9ca20db37"><path d="M 531.042969 1153.167969 L 561.621094 1182.6875 L 532.101562 1213.265625 L 501.523438 1183.742188 Z M 531.042969 1153.167969 " clip-rule="nonzero"/></clipPath><clipPath id="e3c915482d"><path d="M 546.332031 1167.925781 C 537.890625 1159.773438 524.4375 1160.011719 516.285156 1168.453125 C 508.132812 1176.898438 508.367188 1190.351562 516.8125 1198.503906 C 525.253906 1206.65625 538.710938 1206.421875 546.859375 1197.976562 C 555.011719 1189.53125 554.777344 1176.078125 546.332031 1167.925781 Z M 546.332031 1167.925781 " clip-rule="nonzero"/></clipPath><clipPath id="190fbc0c94"><path d="M 0 0 L 43 0 L 43 44 L 0 44 Z M 0 0 " clip-rule="nonzero"/></clipPath><clipPath id="0735f61acd"><path d="M 21.042969 -7.832031 L 51.621094 21.6875 L 22.101562 52.265625 L -8.476562 22.742188 Z M 21.042969 -7.832031 " clip-rule="nonzero"/></clipPath><clipPath id="c192cebda1"><path d="M 36.332031 6.925781 C 27.890625 -1.226562 14.4375 -0.988281 6.285156 7.453125 C -1.867188 15.898438 -1.632812 29.351562 6.8125 37.503906 C 15.253906 45.65625 28.710938 45.421875 36.859375 36.976562 C 45.011719 28.53125 44.777344 15.078125 36.332031 6.925781 Z M 36.332031 6.925781 " clip-rule="nonzero"/></clipPath><clipPath id="06cc2d67ab"><rect x="0" width="43" y="0" height="44"/></clipPath><clipPath id="4f2dccd554"><path d="M 510 1234 L 553 1234 L 553 1278 L 510 1278 Z M 510 1234 " clip-rule="nonzero"/></clipPath><clipPath id="54db764885"><path d="M 531.042969 1225.902344 L 561.621094 1255.425781 L 532.101562 1286 L 501.523438 1256.480469 Z M 531.042969 1225.902344 " clip-rule="nonzero"/></clipPath><clipPath id="972090ab55"><path d="M 546.332031 1240.664062 C 537.890625 1232.511719 524.4375 1232.75 516.285156 1241.191406 C 508.132812 1249.636719 508.367188 1263.089844 516.8125 1271.242188 C 525.253906 1279.394531 538.710938 1279.15625 546.859375 1270.714844 C 555.011719 1262.269531 554.777344 1248.816406 546.332031 1240.664062 Z M 546.332031 1240.664062 " clip-rule="nonzero"/></clipPath><clipPath id="3965cbefce"><path d="M 0 0 L 43 0 L 43 44 L 0 44 Z M 0 0 " clip-rule="nonzero"/></clipPath><clipPath id="99924e3d48"><path d="M 21.042969 -8.097656 L 51.621094 21.425781 L 22.101562 52 L -8.476562 22.480469 Z M 21.042969 -8.097656 " clip-rule="nonzero"/></clipPath><clipPath id="e80e3e944c"><path d="M 36.332031 6.664062 C 27.890625 -1.488281 14.4375 -1.25 6.285156 7.191406 C -1.867188 15.636719 -1.632812 29.089844 6.8125 37.242188 C 15.253906 45.394531 28.710938 45.15625 36.859375 36.714844 C 45.011719 28.269531 44.777344 14.816406 36.332031 6.664062 Z M 36.332031 6.664062 " clip-rule="nonzero"/></clipPath><clipPath id="a59ac9fd76"><rect x="0" width="43" y="0" height="44"/></clipPath><clipPath id="152c66da3d"><path d="M 510 1089 L 553 1089 L 553 1132 L 510 1132 Z M 510 1089 " clip-rule="nonzero"/></clipPath><clipPath id="6681b29260"><path d="M 531.042969 1080.429688 L 561.621094 1109.953125 L 532.101562 1140.527344 L 501.523438 1111.007812 Z M 531.042969 1080.429688 " clip-rule="nonzero"/></clipPath><clipPath id="123090dcc6"><path d="M 546.332031 1095.191406 C 537.890625 1087.039062 524.4375 1087.273438 516.285156 1095.71875 C 508.132812 1104.164062 508.367188 1117.617188 516.8125 1125.769531 C 525.253906 1133.917969 538.710938 1133.683594 546.859375 1125.238281 C 555.011719 1116.796875 554.777344 1103.34375 546.332031 1095.191406 Z M 546.332031 1095.191406 " clip-rule="nonzero"/></clipPath><clipPath id="1022832d1e"><path d="M 0 0 L 43 0 L 43 43 L 0 43 Z M 0 0 " clip-rule="nonzero"/></clipPath><clipPath id="056092628a"><path d="M 21.042969 -8.570312 L 51.621094 20.953125 L 22.101562 51.527344 L -8.476562 22.007812 Z M 21.042969 -8.570312 " clip-rule="nonzero"/></clipPath><clipPath id="aff656d751"><path d="M 36.332031 6.191406 C 27.890625 -1.960938 14.4375 -1.726562 6.285156 6.71875 C -1.867188 15.164062 -1.632812 28.617188 6.8125 36.769531 C 15.253906 44.917969 28.710938 44.683594 36.859375 36.238281 C 45.011719 27.796875 44.777344 14.34375 36.332031 6.191406 Z M 36.332031 6.191406 " clip-rule="nonzero"/></clipPath><clipPath id="87c4c467b3"><rect x="0" width="43" y="0" height="43"/></clipPath><clipPath id="7bf1731dff"><path d="M 521 1006 L 565 1006 L 565 1050 L 521 1050 Z M 521 1006 " clip-rule="nonzero"/></clipPath><clipPath id="87870ff02e"><path d="M 542.308594 998.007812 L 572.886719 1027.527344 L 543.367188 1058.105469 L 512.789062 1028.582031 Z M 542.308594 998.007812 " clip-rule="nonzero"/></clipPath><clipPath id="bf66a5ff52"><path d="M 557.597656 1012.765625 C 549.15625 1004.613281 535.703125 1004.851562 527.550781 1013.292969 C 519.398438 1021.738281 519.632812 1035.191406 528.078125 1043.34375 C 536.519531 1051.496094 549.972656 1051.257812 558.125 1042.816406 C 566.277344 1034.371094 566.042969 1020.917969 557.597656 1012.765625 Z M 557.597656 1012.765625 " clip-rule="nonzero"/></clipPath><clipPath id="5a0e84139e"><path d="M 0 0 L 44 0 L 44 44 L 0 44 Z M 0 0 " clip-rule="nonzero"/></clipPath><clipPath id="ac95c5cbc7"><path d="M 21.308594 -7.992188 L 51.886719 21.527344 L 22.367188 52.105469 L -8.210938 22.582031 Z M 21.308594 -7.992188 " clip-rule="nonzero"/></clipPath><clipPath id="fc9fa7f80d"><path d="M 36.597656 6.765625 C 28.15625 -1.386719 14.703125 -1.148438 6.550781 7.292969 C -1.601562 15.738281 -1.367188 29.191406 7.078125 37.34375 C 15.519531 45.496094 28.972656 45.257812 37.125 36.816406 C 45.277344 28.371094 45.042969 14.917969 36.597656 6.765625 Z M 36.597656 6.765625 " clip-rule="nonzero"/></clipPath><clipPath id="3360bab874"><rect x="0" width="44" y="0" height="44"/></clipPath><clipPath id="2ff5c4e5a4"><path d="M 357 1246 L 400 1246 L 400 1290 L 357 1290 Z M 357 1246 " clip-rule="nonzero"/></clipPath><clipPath id="9bf3c87edb"><path d="M 377.910156 1237.875 L 408.488281 1267.398438 L 378.964844 1297.972656 L 348.386719 1268.453125 Z M 377.910156 1237.875 " clip-rule="nonzero"/></clipPath><clipPath id="b862fcf349"><path d="M 393.199219 1252.636719 C 384.753906 1244.484375 371.300781 1244.71875 363.148438 1253.164062 C 354.996094 1261.609375 355.234375 1275.0625 363.675781 1283.214844 C 372.121094 1291.367188 385.574219 1291.128906 393.726562 1282.6875 C 401.878906 1274.242188 401.640625 1260.789062 393.199219 1252.636719 Z M 393.199219 1252.636719 " clip-rule="nonzero"/></clipPath><clipPath id="7165620ff5"><path d="M 0 0 L 43 0 L 43 44 L 0 44 Z M 0 0 " clip-rule="nonzero"/></clipPath><clipPath id="ae818e09bb"><path d="M 20.910156 -8.125 L 51.488281 21.398438 L 21.964844 51.972656 L -8.613281 22.453125 Z M 20.910156 -8.125 " clip-rule="nonzero"/></clipPath><clipPath id="94170d9e2f"><path d="M 36.199219 6.636719 C 27.753906 -1.515625 14.300781 -1.28125 6.148438 7.164062 C -2.003906 15.609375 -1.765625 29.0625 6.675781 37.214844 C 15.121094 45.367188 28.574219 45.128906 36.726562 36.6875 C 44.878906 28.242188 44.640625 14.789062 36.199219 6.636719 Z M 36.199219 6.636719 " clip-rule="nonzero"/></clipPath><clipPath id="658b68db97"><rect x="0" width="43" y="0" height="44"/></clipPath><clipPath id="ed7c7b2d68"><path d="M 357 1167 L 400 1167 L 400 1211 L 357 1211 Z M 357 1167 " clip-rule="nonzero"/></clipPath><clipPath id="813cc78a6c"><path d="M 377.910156 1159.152344 L 408.488281 1188.675781 L 378.964844 1219.25 L 348.386719 1189.730469 Z M 377.910156 1159.152344 " clip-rule="nonzero"/></clipPath><clipPath id="59289ed097"><path d="M 393.199219 1173.914062 C 384.753906 1165.761719 371.300781 1165.996094 363.148438 1174.441406 C 354.996094 1182.886719 355.234375 1196.339844 363.675781 1204.492188 C 372.121094 1212.644531 385.574219 1212.40625 393.726562 1203.960938 C 401.878906 1195.519531 401.640625 1182.066406 393.199219 1173.914062 Z M 393.199219 1173.914062 " clip-rule="nonzero"/></clipPath><clipPath id="d23114e2d8"><path d="M 0 0 L 43 0 L 43 44 L 0 44 Z M 0 0 " clip-rule="nonzero"/></clipPath><clipPath id="da1c006e30"><path d="M 20.910156 -7.847656 L 51.488281 21.675781 L 21.964844 52.25 L -8.613281 22.730469 Z M 20.910156 -7.847656 " clip-rule="nonzero"/></clipPath><clipPath id="15cfd1b2bc"><path d="M 36.199219 6.914062 C 27.753906 -1.238281 14.300781 -1.003906 6.148438 7.441406 C -2.003906 15.886719 -1.765625 29.339844 6.675781 37.492188 C 15.121094 45.644531 28.574219 45.40625 36.726562 36.960938 C 44.878906 28.519531 44.640625 15.066406 36.199219 6.914062 Z M 36.199219 6.914062 " clip-rule="nonzero"/></clipPath><clipPath id="0209a96670"><rect x="0" width="43" y="0" height="44"/></clipPath><clipPath id="a51fb42e58"><path d="M 357 1089 L 400 1089 L 400 1132 L 357 1132 Z M 357 1089 " clip-rule="nonzero"/></clipPath><clipPath id="94818d29c6"><path d="M 377.910156 1080.429688 L 408.488281 1109.953125 L 378.964844 1140.527344 L 348.386719 1111.007812 Z M 377.910156 1080.429688 " clip-rule="nonzero"/></clipPath><clipPath id="ec16f9bb64"><path d="M 393.199219 1095.191406 C 384.753906 1087.039062 371.300781 1087.273438 363.148438 1095.71875 C 354.996094 1104.164062 355.234375 1117.617188 363.675781 1125.769531 C 372.121094 1133.917969 385.574219 1133.683594 393.726562 1125.238281 C 401.878906 1116.796875 401.640625 1103.34375 393.199219 1095.191406 Z M 393.199219 1095.191406 " clip-rule="nonzero"/></clipPath><clipPath id="de8e46d5f1"><path d="M 0 0 L 43 0 L 43 43 L 0 43 Z M 0 0 " clip-rule="nonzero"/></clipPath><clipPath id="bebf0431f6"><path d="M 20.910156 -8.570312 L 51.488281 20.953125 L 21.964844 51.527344 L -8.613281 22.007812 Z M 20.910156 -8.570312 " clip-rule="nonzero"/></clipPath><clipPath id="d344e10035"><path d="M 36.199219 6.191406 C 27.753906 -1.960938 14.300781 -1.726562 6.148438 6.71875 C -2.003906 15.164062 -1.765625 28.617188 6.675781 36.769531 C 15.121094 44.917969 28.574219 44.683594 36.726562 36.238281 C 44.878906 27.796875 44.640625 14.34375 36.199219 6.191406 Z M 36.199219 6.191406 " clip-rule="nonzero"/></clipPath><clipPath id="2919dab6fc"><rect x="0" width="43" y="0" height="43"/></clipPath><clipPath id="5dee3bc5da"><path d="M 372 983 L 415 983 L 415 1027 L 372 1027 Z M 372 983 " clip-rule="nonzero"/></clipPath><clipPath id="995c4b6172"><path d="M 393.191406 975.058594 L 423.769531 1004.582031 L 394.25 1035.160156 L 363.671875 1005.636719 Z M 393.191406 975.058594 " clip-rule="nonzero"/></clipPath><clipPath id="4bde31de4f"><path d="M 408.480469 989.820312 C 400.039062 981.667969 386.585938 981.90625 378.433594 990.347656 C 370.28125 998.792969 370.515625 1012.246094 378.960938 1020.398438 C 387.402344 1028.550781 400.855469 1028.3125 409.007812 1019.871094 C 417.160156 1011.425781 416.925781 997.972656 408.480469 989.820312 Z M 408.480469 989.820312 " clip-rule="nonzero"/></clipPath><clipPath id="e39d338249"><path d="M 0 0 L 43 0 L 43 44 L 0 44 Z M 0 0 " clip-rule="nonzero"/></clipPath><clipPath id="0a5bfb2689"><path d="M 21.191406 -7.941406 L 51.769531 21.582031 L 22.25 52.160156 L -8.328125 22.636719 Z M 21.191406 -7.941406 " clip-rule="nonzero"/></clipPath><clipPath id="8cb01edda1"><path d="M 36.480469 6.820312 C 28.039062 -1.332031 14.585938 -1.09375 6.433594 7.347656 C -1.71875 15.792969 -1.484375 29.246094 6.960938 37.398438 C 15.402344 45.550781 28.855469 45.3125 37.007812 36.871094 C 45.160156 28.425781 44.925781 14.972656 36.480469 6.820312 Z M 36.480469 6.820312 " clip-rule="nonzero"/></clipPath><clipPath id="4139446637"><rect x="0" width="43" y="0" height="44"/></clipPath><clipPath id="e1f6c001ff"><path d="M 410 901 L 454 901 L 454 944 L 410 944 Z M 410 901 " clip-rule="nonzero"/></clipPath><clipPath id="4dcd8ad3e0"><path d="M 431.628906 892.363281 L 462.203125 921.886719 L 432.683594 952.464844 L 402.105469 922.941406 Z M 431.628906 892.363281 " clip-rule="nonzero"/></clipPath><clipPath id="3df9771c98"><path d="M 446.914062 907.125 C 438.472656 898.972656 425.019531 899.210938 416.867188 907.652344 C 408.714844 916.097656 408.949219 929.550781 417.394531 937.703125 C 425.839844 945.855469 439.292969 945.617188 447.445312 937.175781 C 455.597656 928.730469 455.359375 915.277344 446.914062 907.125 Z M 446.914062 907.125 " clip-rule="nonzero"/></clipPath><clipPath id="880ce06aa0"><path d="M 0 0 L 44 0 L 44 43 L 0 43 Z M 0 0 " clip-rule="nonzero"/></clipPath><clipPath id="b21da52161"><path d="M 21.628906 -8.636719 L 52.203125 20.886719 L 22.683594 51.464844 L -7.894531 21.941406 Z M 21.628906 -8.636719 " clip-rule="nonzero"/></clipPath><clipPath id="f3a1bc3c6d"><path d="M 36.914062 6.125 C 28.472656 -2.027344 15.019531 -1.789062 6.867188 6.652344 C -1.285156 15.097656 -1.050781 28.550781 7.394531 36.703125 C 15.839844 44.855469 29.292969 44.617188 37.445312 36.175781 C 45.597656 27.730469 45.359375 14.277344 36.914062 6.125 Z M 36.914062 6.125 " clip-rule="nonzero"/></clipPath><clipPath id="46e954d912"><rect x="0" width="44" y="0" height="43"/></clipPath><clipPath id="d25ada13a7"><path d="M 491 860 L 535 860 L 535 904 L 491 904 Z M 491 860 " clip-rule="nonzero"/></clipPath><clipPath id="255ae5e673"><path d="M 512.261719 851.734375 L 542.835938 881.253906 L 513.316406 911.832031 L 482.738281 882.3125 Z M 512.261719 851.734375 " clip-rule="nonzero"/></clipPath><clipPath id="e63c6cf62b"><path d="M 527.550781 866.496094 C 519.105469 858.34375 505.652344 858.578125 497.5 867.023438 C 489.347656 875.464844 489.585938 888.917969 498.027344 897.070312 C 506.472656 905.222656 519.925781 904.988281 528.078125 896.542969 C 536.230469 888.101562 535.992188 874.644531 527.550781 866.496094 Z M 527.550781 866.496094 " clip-rule="nonzero"/></clipPath><clipPath id="cd2f527343"><path d="M 0 0 L 44 0 L 44 44 L 0 44 Z M 0 0 " clip-rule="nonzero"/></clipPath><clipPath id="294754ccc5"><path d="M 21.261719 -8.265625 L 51.835938 21.253906 L 22.316406 51.832031 L -8.261719 22.3125 Z M 21.261719 -8.265625 " clip-rule="nonzero"/></clipPath><clipPath id="ca0bcd38ab"><path d="M 36.550781 6.496094 C 28.105469 -1.65625 14.652344 -1.421875 6.5 7.023438 C -1.652344 15.464844 -1.414062 28.917969 7.027344 37.070312 C 15.472656 45.222656 28.925781 44.988281 37.078125 36.542969 C 45.230469 28.101562 44.992188 14.644531 36.550781 6.496094 Z M 36.550781 6.496094 " clip-rule="nonzero"/></clipPath><clipPath id="c224895f19"><rect x="0" width="44" y="0" height="44"/></clipPath><clipPath id="1f896a8794"><path d="M 581 813.417969 L 744.210938 813.417969 L 744.210938 976.773438 L 581 976.773438 Z M 581 813.417969 " clip-rule="nonzero"/></clipPath><clipPath id="69bb5e0a58"><path d="M 671.800781 582.933594 L 744.238281 582.933594 L 744.238281 813.628906 L 671.800781 813.628906 Z M 671.800781 582.933594 " clip-rule="nonzero"/></clipPath><clipPath id="8b6685d011"><path d="M 0.800781 1 L 73.238281 1 L 73.238281 231.628906 L 0.800781 231.628906 Z M 0.800781 1 " clip-rule="nonzero"/></clipPath><clipPath id="71a22069b1"><rect x="0" width="74" y="0" height="232"/></clipPath><clipPath id="a02d2c4f4d"><path d="M 612 679 L 656 679 L 656 722 L 612 722 Z M 612 679 " clip-rule="nonzero"/></clipPath><clipPath id="5c2dbec0b8"><path d="M 633.792969 730.507812 L 603.738281 700.453125 L 633.792969 670.398438 L 663.84375 700.453125 Z M 633.792969 730.507812 " clip-rule="nonzero"/></clipPath><clipPath id="6f9aa4f1d0"><path d="M 618.765625 715.480469 C 627.0625 723.777344 640.519531 723.777344 648.820312 715.480469 C 657.117188 707.179688 657.117188 693.722656 648.820312 685.425781 C 640.519531 677.125 627.0625 677.125 618.765625 685.425781 C 610.464844 693.722656 610.464844 707.179688 618.765625 715.480469 Z M 618.765625 715.480469 " clip-rule="nonzero"/></clipPath><clipPath id="fa4a418820"><path d="M 0 0 L 44 0 L 44 43 L 0 43 Z M 0 0 " clip-rule="nonzero"/></clipPath><clipPath id="b1cab6bf31"><path d="M 21.792969 51.507812 L -8.261719 21.453125 L 21.792969 -8.601562 L 51.84375 21.453125 Z M 21.792969 51.507812 " clip-rule="nonzero"/></clipPath><clipPath id="ac8b58c0cd"><path d="M 6.765625 36.480469 C 15.0625 44.777344 28.519531 44.777344 36.820312 36.480469 C 45.117188 28.179688 45.117188 14.722656 36.820312 6.425781 C 28.519531 -1.875 15.0625 -1.875 6.765625 6.425781 C -1.535156 14.722656 -1.535156 28.179688 6.765625 36.480469 Z M 6.765625 36.480469 " clip-rule="nonzero"/></clipPath><clipPath id="afef069800"><rect x="0" width="44" y="0" height="43"/></clipPath><clipPath id="fbf87661b3"><path d="M 612 603 L 656 603 L 656 646 L 612 646 Z M 612 603 " clip-rule="nonzero"/></clipPath><clipPath id="9440b4ecb4"><path d="M 633.792969 654.304688 L 603.738281 624.253906 L 633.792969 594.199219 L 663.84375 624.253906 Z M 633.792969 654.304688 " clip-rule="nonzero"/></clipPath><clipPath id="69ecf0ba6e"><path d="M 618.765625 639.277344 C 627.0625 647.578125 640.519531 647.578125 648.820312 639.277344 C 657.117188 630.980469 657.117188 617.523438 648.820312 609.226562 C 640.519531 600.925781 627.0625 600.925781 618.765625 609.226562 C 610.464844 617.523438 610.464844 630.980469 618.765625 639.277344 Z M 618.765625 639.277344 " clip-rule="nonzero"/></clipPath><clipPath id="2c57a70f77"><path d="M 0 0 L 44 0 L 44 43 L 0 43 Z M 0 0 " clip-rule="nonzero"/></clipPath><clipPath id="a84f925478"><path d="M 21.792969 51.304688 L -8.261719 21.253906 L 21.792969 -8.800781 L 51.84375 21.253906 Z M 21.792969 51.304688 " clip-rule="nonzero"/></clipPath><clipPath id="d55f8eb10b"><path d="M 6.765625 36.277344 C 15.0625 44.578125 28.519531 44.578125 36.820312 36.277344 C 45.117188 27.980469 45.117188 14.523438 36.820312 6.226562 C 28.519531 -2.074219 15.0625 -2.074219 6.765625 6.226562 C -1.535156 14.523438 -1.535156 27.980469 6.765625 36.277344 Z M 6.765625 36.277344 " clip-rule="nonzero"/></clipPath><clipPath id="7530bff89b"><rect x="0" width="44" y="0" height="43"/></clipPath><clipPath id="09f2563926"><path d="M 612 755 L 656 755 L 656 798 L 612 798 Z M 612 755 " clip-rule="nonzero"/></clipPath><clipPath id="5bfc4df320"><path d="M 633.792969 806.707031 L 603.738281 776.652344 L 633.792969 746.597656 L 663.84375 776.652344 Z M 633.792969 806.707031 " clip-rule="nonzero"/></clipPath><clipPath id="905e78b280"><path d="M 618.765625 791.679688 C 627.0625 799.976562 640.519531 799.976562 648.820312 791.679688 C 657.117188 783.378906 657.117188 769.925781 648.820312 761.625 C 640.519531 753.324219 627.0625 753.324219 618.765625 761.625 C 610.464844 769.925781 610.464844 783.378906 618.765625 791.679688 Z M 618.765625 791.679688 " clip-rule="nonzero"/></clipPath><clipPath id="11e0f4826d"><path d="M 0 0 L 44 0 L 44 43 L 0 43 Z M 0 0 " clip-rule="nonzero"/></clipPath><clipPath id="eb6670a6be"><path d="M 21.792969 51.707031 L -8.261719 21.652344 L 21.792969 -8.402344 L 51.84375 21.652344 Z M 21.792969 51.707031 " clip-rule="nonzero"/></clipPath><clipPath id="5bdd2c9c1f"><path d="M 6.765625 36.679688 C 15.0625 44.976562 28.519531 44.976562 36.820312 36.679688 C 45.117188 28.378906 45.117188 14.925781 36.820312 6.625 C 28.519531 -1.675781 15.0625 -1.675781 6.765625 6.625 C -1.535156 14.925781 -1.535156 28.378906 6.765625 36.679688 Z M 6.765625 36.679688 " clip-rule="nonzero"/></clipPath><clipPath id="896b50efd6"><rect x="0" width="44" y="0" height="43"/></clipPath><clipPath id="c8de5ee37b"><path d="M 596 827 L 640 827 L 640 871 L 596 871 Z M 596 827 " clip-rule="nonzero"/></clipPath><clipPath id="93cc9ae441"><path d="M 618.058594 879.164062 L 588.003906 849.109375 L 618.058594 819.054688 L 648.113281 849.109375 Z M 618.058594 879.164062 " clip-rule="nonzero"/></clipPath><clipPath id="a0d5a8afb8"><path d="M 603.03125 864.136719 C 611.332031 872.433594 624.785156 872.433594 633.085938 864.136719 C 641.382812 855.835938 641.382812 842.382812 633.085938 834.082031 C 624.785156 825.78125 611.332031 825.78125 603.03125 834.082031 C 594.730469 842.382812 594.730469 855.835938 603.03125 864.136719 Z M 603.03125 864.136719 " clip-rule="nonzero"/></clipPath><clipPath id="fb7e7d9f91"><path d="M 0 0 L 44 0 L 44 44 L 0 44 Z M 0 0 " clip-rule="nonzero"/></clipPath><clipPath id="08881b824d"><path d="M 22.058594 52.164062 L -7.996094 22.109375 L 22.058594 -7.945312 L 52.113281 22.109375 Z M 22.058594 52.164062 " clip-rule="nonzero"/></clipPath><clipPath id="9081ba4dc2"><path d="M 7.03125 37.136719 C 15.332031 45.433594 28.785156 45.433594 37.085938 37.136719 C 45.382812 28.835938 45.382812 15.382812 37.085938 7.082031 C 28.785156 -1.21875 15.332031 -1.21875 7.03125 7.082031 C -1.269531 15.382812 -1.269531 28.835938 7.03125 37.136719 Z M 7.03125 37.136719 " clip-rule="nonzero"/></clipPath><clipPath id="331652a970"><rect x="0" width="44" y="0" height="44"/></clipPath><clipPath id="71e1e22122"><path d="M 763 599 L 806 599 L 806 642 L 763 642 Z M 763 599 " clip-rule="nonzero"/></clipPath><clipPath id="c57a74548b"><path d="M 784.25 650.5625 L 754.199219 620.507812 L 784.25 590.453125 L 814.304688 620.507812 Z M 784.25 650.5625 " clip-rule="nonzero"/></clipPath><clipPath id="b1907af1f9"><path d="M 769.222656 635.535156 C 777.523438 643.832031 790.980469 643.832031 799.277344 635.535156 C 807.578125 627.234375 807.578125 613.78125 799.277344 605.480469 C 790.980469 597.179688 777.523438 597.179688 769.222656 605.480469 C 760.925781 613.78125 760.925781 627.234375 769.222656 635.535156 Z M 769.222656 635.535156 " clip-rule="nonzero"/></clipPath><clipPath id="ee1a1ccc73"><path d="M 0 0 L 43 0 L 43 43 L 0 43 Z M 0 0 " clip-rule="nonzero"/></clipPath><clipPath id="1bc3cbe651"><path d="M 21.25 51.5625 L -8.800781 21.507812 L 21.25 -8.546875 L 51.304688 21.507812 Z M 21.25 51.5625 " clip-rule="nonzero"/></clipPath><clipPath id="b7d1b0f80f"><path d="M 6.222656 36.535156 C 14.523438 44.832031 27.980469 44.832031 36.277344 36.535156 C 44.578125 28.234375 44.578125 14.78125 36.277344 6.480469 C 27.980469 -1.820312 14.523438 -1.820312 6.222656 6.480469 C -2.074219 14.78125 -2.074219 28.234375 6.222656 36.535156 Z M 6.222656 36.535156 " clip-rule="nonzero"/></clipPath><clipPath id="2e10d166dc"><rect x="0" width="43" y="0" height="43"/></clipPath><clipPath id="89c9fc4676"><path d="M 763 676 L 806 676 L 806 719 L 763 719 Z M 763 676 " clip-rule="nonzero"/></clipPath><clipPath id="ce1af7071b"><path d="M 784.25 727.339844 L 754.199219 697.285156 L 784.25 667.234375 L 814.304688 697.285156 Z M 784.25 727.339844 " clip-rule="nonzero"/></clipPath><clipPath id="3d75e2dbf3"><path d="M 769.222656 712.3125 C 777.523438 720.613281 790.980469 720.613281 799.277344 712.3125 C 807.578125 704.015625 807.578125 690.558594 799.277344 682.257812 C 790.980469 673.960938 777.523438 673.960938 769.222656 682.257812 C 760.925781 690.558594 760.925781 704.015625 769.222656 712.3125 Z M 769.222656 712.3125 " clip-rule="nonzero"/></clipPath><clipPath id="03dad53d76"><path d="M 0 0 L 43 0 L 43 43 L 0 43 Z M 0 0 " clip-rule="nonzero"/></clipPath><clipPath id="33e1e4247f"><path d="M 21.25 51.339844 L -8.800781 21.285156 L 21.25 -8.765625 L 51.304688 21.285156 Z M 21.25 51.339844 " clip-rule="nonzero"/></clipPath><clipPath id="0235863b93"><path d="M 6.222656 36.3125 C 14.523438 44.613281 27.980469 44.613281 36.277344 36.3125 C 44.578125 28.015625 44.578125 14.558594 36.277344 6.257812 C 27.980469 -2.039062 14.523438 -2.039062 6.222656 6.257812 C -2.074219 14.558594 -2.074219 28.015625 6.222656 36.3125 Z M 6.222656 36.3125 " clip-rule="nonzero"/></clipPath><clipPath id="ee961082f3"><rect x="0" width="43" y="0" height="43"/></clipPath><clipPath id="26ce16c726"><path d="M 763 752 L 806 752 L 806 796 L 763 796 Z M 763 752 " clip-rule="nonzero"/></clipPath><clipPath id="084c99d76e"><path d="M 784.25 804.121094 L 754.199219 774.066406 L 784.25 744.011719 L 814.304688 774.066406 Z M 784.25 804.121094 " clip-rule="nonzero"/></clipPath><clipPath id="c9602e8ec2"><path d="M 769.222656 789.09375 C 777.523438 797.390625 790.980469 797.390625 799.277344 789.09375 C 807.578125 780.792969 807.578125 767.335938 799.277344 759.039062 C 790.980469 750.738281 777.523438 750.738281 769.222656 759.039062 C 760.925781 767.335938 760.925781 780.792969 769.222656 789.09375 Z M 769.222656 789.09375 " clip-rule="nonzero"/></clipPath><clipPath id="116e318099"><path d="M 0 0 L 43 0 L 43 44 L 0 44 Z M 0 0 " clip-rule="nonzero"/></clipPath><clipPath id="c439ffae58"><path d="M 21.25 52.121094 L -8.800781 22.066406 L 21.25 -7.988281 L 51.304688 22.066406 Z M 21.25 52.121094 " clip-rule="nonzero"/></clipPath><clipPath id="fbad40b8e6"><path d="M 6.222656 37.09375 C 14.523438 45.390625 27.980469 45.390625 36.277344 37.09375 C 44.578125 28.792969 44.578125 15.335938 36.277344 7.039062 C 27.980469 -1.261719 14.523438 -1.261719 6.222656 7.039062 C -2.074219 15.335938 -2.074219 28.792969 6.222656 37.09375 Z M 6.222656 37.09375 " clip-rule="nonzero"/></clipPath><clipPath id="edf955713b"><rect x="0" width="43" y="0" height="44"/></clipPath><clipPath id="173c1e99da"><path d="M 752 857 L 795 857 L 795 901 L 752 901 Z M 752 857 " clip-rule="nonzero"/></clipPath><clipPath id="cabc699bb8"><path d="M 773.394531 909.21875 L 743.34375 879.164062 L 773.394531 849.109375 L 803.449219 879.164062 Z M 773.394531 909.21875 " clip-rule="nonzero"/></clipPath><clipPath id="35f7688da2"><path d="M 758.367188 894.191406 C 766.667969 902.488281 780.125 902.488281 788.421875 894.191406 C 796.722656 885.890625 796.722656 872.433594 788.421875 864.136719 C 780.125 855.835938 766.667969 855.835938 758.367188 864.136719 C 750.070312 872.433594 750.070312 885.890625 758.367188 894.191406 Z M 758.367188 894.191406 " clip-rule="nonzero"/></clipPath><clipPath id="4ddf3343f4"><path d="M 0 0 L 43 0 L 43 44 L 0 44 Z M 0 0 " clip-rule="nonzero"/></clipPath><clipPath id="8275ae92cf"><path d="M 21.394531 52.21875 L -8.65625 22.164062 L 21.394531 -7.890625 L 51.449219 22.164062 Z M 21.394531 52.21875 " clip-rule="nonzero"/></clipPath><clipPath id="d9577872fb"><path d="M 6.367188 37.191406 C 14.667969 45.488281 28.125 45.488281 36.421875 37.191406 C 44.722656 28.890625 44.722656 15.433594 36.421875 7.136719 C 28.125 -1.164062 14.667969 -1.164062 6.367188 7.136719 C -1.929688 15.433594 -1.929688 28.890625 6.367188 37.191406 Z M 6.367188 37.191406 " clip-rule="nonzero"/></clipPath><clipPath id="bc516244fc"><rect x="0" width="43" y="0" height="44"/></clipPath><clipPath id="24fc6f81f5"><path d="M 704 933 L 747 933 L 747 977 L 704 977 Z M 704 933 " clip-rule="nonzero"/></clipPath><clipPath id="f32fa69617"><path d="M 725.460938 985.0625 L 695.40625 955.007812 L 725.460938 924.953125 L 755.515625 955.007812 Z M 725.460938 985.0625 " clip-rule="nonzero"/></clipPath><clipPath id="fd97d0d3ae"><path d="M 710.433594 970.035156 C 718.734375 978.332031 732.191406 978.332031 740.488281 970.035156 C 748.789062 961.734375 748.789062 948.28125 740.488281 939.980469 C 732.191406 931.679688 718.734375 931.679688 710.433594 939.980469 C 702.136719 948.28125 702.136719 961.734375 710.433594 970.035156 Z M 710.433594 970.035156 " clip-rule="nonzero"/></clipPath><clipPath id="1abe5cbf58"><path d="M 0 0 L 43 0 L 43 44 L 0 44 Z M 0 0 " clip-rule="nonzero"/></clipPath><clipPath id="8f8ea70327"><path d="M 21.460938 52.0625 L -8.59375 22.007812 L 21.460938 -8.046875 L 51.515625 22.007812 Z M 21.460938 52.0625 " clip-rule="nonzero"/></clipPath><clipPath id="8780ef7dec"><path d="M 6.433594 37.035156 C 14.734375 45.332031 28.191406 45.332031 36.488281 37.035156 C 44.789062 28.734375 44.789062 15.28125 36.488281 6.980469 C 28.191406 -1.320312 14.734375 -1.320312 6.433594 6.980469 C -1.863281 15.28125 -1.863281 28.734375 6.433594 37.035156 Z M 6.433594 37.035156 " clip-rule="nonzero"/></clipPath><clipPath id="c2ef7fa86e"><rect x="0" width="43" y="0" height="44"/></clipPath><clipPath id="171e559c85"><path d="M 617 979 L 660 979 L 660 1022 L 617 1022 Z M 617 979 " clip-rule="nonzero"/></clipPath><clipPath id="520ff88230"><path d="M 638.378906 1030.433594 L 608.324219 1000.378906 L 638.378906 970.324219 L 668.433594 1000.378906 Z M 638.378906 1030.433594 " clip-rule="nonzero"/></clipPath><clipPath id="1a667f6985"><path d="M 623.351562 1015.40625 C 631.648438 1023.707031 645.105469 1023.707031 653.40625 1015.40625 C 661.703125 1007.105469 661.703125 993.652344 653.40625 985.351562 C 645.105469 977.054688 631.648438 977.054688 623.351562 985.351562 C 615.050781 993.652344 615.050781 1007.105469 623.351562 1015.40625 Z M 623.351562 1015.40625 " clip-rule="nonzero"/></clipPath><clipPath id="6c003622b4"><path d="M 0 0 L 43 0 L 43 43 L 0 43 Z M 0 0 " clip-rule="nonzero"/></clipPath><clipPath id="b32ffcfe42"><path d="M 21.378906 51.433594 L -8.675781 21.378906 L 21.378906 -8.675781 L 51.433594 21.378906 Z M 21.378906 51.433594 " clip-rule="nonzero"/></clipPath><clipPath id="8c2ce98c23"><path d="M 6.351562 36.40625 C 14.648438 44.707031 28.105469 44.707031 36.40625 36.40625 C 44.703125 28.105469 44.703125 14.652344 36.40625 6.351562 C 28.105469 -1.945312 14.648438 -1.945312 6.351562 6.351562 C -1.949219 14.652344 -1.949219 28.105469 6.351562 36.40625 Z M 6.351562 36.40625 " clip-rule="nonzero"/></clipPath><clipPath id="b0d801f276"><rect x="0" width="43" y="0" height="43"/></clipPath><clipPath id="a4be8263a9"><path d="M 421 1300 L 588 1300 L 588 1462 L 421 1462 Z M 421 1300 " clip-rule="nonzero"/></clipPath><clipPath id="268813d05f"><path d="M 424.925781 1464.863281 L 421.105469 1301.550781 L 584.417969 1297.734375 L 588.234375 1461.046875 Z M 424.925781 1464.863281 " clip-rule="nonzero"/></clipPath><clipPath id="ce349c8452"><path d="M 424.925781 1464.863281 L 421.105469 1301.550781 L 584.417969 1297.734375 L 588.234375 1461.046875 Z M 424.925781 1464.863281 " clip-rule="nonzero"/></clipPath><clipPath id="b9b52a208f"><path d="M 521 1310 L 565 1310 L 565 1354 L 521 1354 Z M 521 1310 " clip-rule="nonzero"/></clipPath><clipPath id="030a9894d6"><path d="M 572.886719 1331.082031 L 543.542969 1361.828125 L 512.792969 1332.484375 L 542.136719 1301.738281 Z M 572.886719 1331.082031 " clip-rule="nonzero"/></clipPath><clipPath id="3149b56ff3"><path d="M 558.214844 1346.453125 C 566.316406 1337.964844 566.003906 1324.511719 557.511719 1316.410156 C 549.019531 1308.304688 535.570312 1308.621094 527.464844 1317.109375 C 519.363281 1325.601562 519.679688 1339.054688 528.167969 1347.15625 C 536.660156 1355.261719 550.113281 1354.945312 558.214844 1346.453125 Z M 558.214844 1346.453125 " clip-rule="nonzero"/></clipPath><clipPath id="beaf52dff7"><path d="M 0 0 L 44 0 L 44 44 L 0 44 Z M 0 0 " clip-rule="nonzero"/></clipPath><clipPath id="af3558b2f9"><path d="M 51.886719 21.082031 L 22.542969 51.828125 L -8.207031 22.484375 L 21.136719 -8.261719 Z M 51.886719 21.082031 " clip-rule="nonzero"/></clipPath><clipPath id="30e1039b4d"><path d="M 37.214844 36.453125 C 45.316406 27.964844 45.003906 14.511719 36.511719 6.410156 C 28.019531 -1.695312 14.570312 -1.378906 6.464844 7.109375 C -1.636719 15.601562 -1.320312 29.054688 7.167969 37.15625 C 15.660156 45.261719 29.113281 44.945312 37.214844 36.453125 Z M 37.214844 36.453125 " clip-rule="nonzero"/></clipPath><clipPath id="6a917c90fa"><rect x="0" width="44" y="0" height="44"/></clipPath><clipPath id="56a0c6bd94"><path d="M 603 1306 L 647 1306 L 647 1350 L 603 1350 Z M 603 1306 " clip-rule="nonzero"/></clipPath><clipPath id="651a9c03e2"><path d="M 654.855469 1327.316406 L 625.511719 1358.066406 L 594.765625 1328.722656 L 624.109375 1297.972656 Z M 654.855469 1327.316406 " clip-rule="nonzero"/></clipPath><clipPath id="b808eaeff0"><path d="M 640.183594 1342.691406 C 648.289062 1334.199219 647.972656 1320.75 639.484375 1312.644531 C 630.992188 1304.542969 617.539062 1304.855469 609.4375 1313.347656 C 601.335938 1321.839844 601.648438 1335.289062 610.140625 1343.394531 C 618.628906 1351.496094 632.082031 1351.183594 640.183594 1342.691406 Z M 640.183594 1342.691406 " clip-rule="nonzero"/></clipPath><clipPath id="ae75468a31"><path d="M 0 0 L 44 0 L 44 44 L 0 44 Z M 0 0 " clip-rule="nonzero"/></clipPath><clipPath id="e842846950"><path d="M 51.855469 21.316406 L 22.511719 52.066406 L -8.234375 22.722656 L 21.109375 -8.027344 Z M 51.855469 21.316406 " clip-rule="nonzero"/></clipPath><clipPath id="3e18f28d66"><path d="M 37.183594 36.691406 C 45.289062 28.199219 44.972656 14.75 36.484375 6.644531 C 27.992188 -1.457031 14.539062 -1.144531 6.4375 7.347656 C -1.664062 15.839844 -1.351562 29.289062 7.140625 37.394531 C 15.628906 45.496094 29.082031 45.183594 37.183594 36.691406 Z M 37.183594 36.691406 " clip-rule="nonzero"/></clipPath><clipPath id="75fc3a4d7e"><rect x="0" width="44" y="0" height="44"/></clipPath><clipPath id="5f4386d615"><path d="M 416 1425 L 460 1425 L 460 1468 L 416 1468 Z M 416 1425 " clip-rule="nonzero"/></clipPath><clipPath id="b42b39cadd"><path d="M 467.871094 1445.929688 L 438.527344 1476.675781 L 407.777344 1447.332031 L 437.121094 1416.585938 Z M 467.871094 1445.929688 " clip-rule="nonzero"/></clipPath><clipPath id="ab3a8f6cd7"><path d="M 453.199219 1461.304688 C 461.300781 1452.8125 460.988281 1439.359375 452.496094 1431.257812 C 444.003906 1423.15625 430.554688 1423.46875 422.449219 1431.960938 C 414.347656 1440.449219 414.660156 1453.902344 423.152344 1462.003906 C 431.644531 1470.109375 445.09375 1469.792969 453.199219 1461.304688 Z M 453.199219 1461.304688 " clip-rule="nonzero"/></clipPath><clipPath id="f4ee9131d0"><path d="M 0 0 L 44 0 L 44 43 L 0 43 Z M 0 0 " clip-rule="nonzero"/></clipPath><clipPath id="aea39fb617"><path d="M 51.871094 20.929688 L 22.527344 51.675781 L -8.222656 22.332031 L 21.121094 -8.414062 Z M 51.871094 20.929688 " clip-rule="nonzero"/></clipPath><clipPath id="3923974eee"><path d="M 37.199219 36.304688 C 45.300781 27.8125 44.988281 14.359375 36.496094 6.257812 C 28.003906 -1.84375 14.554688 -1.53125 6.449219 6.960938 C -1.652344 15.449219 -1.339844 28.902344 7.152344 37.003906 C 15.644531 45.109375 29.09375 44.792969 37.199219 36.304688 Z M 37.199219 36.304688 " clip-rule="nonzero"/></clipPath><clipPath id="b8ae7b236b"><rect x="0" width="44" y="0" height="43"/></clipPath><clipPath id="b84baf8278"><path d="M 362 1336 L 405 1336 L 405 1380 L 362 1380 Z M 362 1336 " clip-rule="nonzero"/></clipPath><clipPath id="d037da8c69"><path d="M 413.605469 1357.363281 L 384.265625 1388.109375 L 353.515625 1358.765625 L 382.859375 1328.019531 Z M 413.605469 1357.363281 " clip-rule="nonzero"/></clipPath><clipPath id="d2a63bd490"><path d="M 398.933594 1372.738281 C 407.039062 1364.246094 406.722656 1350.792969 398.234375 1342.691406 C 389.742188 1334.589844 376.289062 1334.902344 368.1875 1343.394531 C 360.085938 1351.882812 360.398438 1365.335938 368.890625 1373.4375 C 377.378906 1381.542969 390.832031 1381.226562 398.933594 1372.738281 Z M 398.933594 1372.738281 " clip-rule="nonzero"/></clipPath><clipPath id="de9f4b20ab"><path d="M 0 0 L 43 0 L 43 44 L 0 44 Z M 0 0 " clip-rule="nonzero"/></clipPath><clipPath id="5ec22035c8"><path d="M 51.605469 21.363281 L 22.265625 52.109375 L -8.484375 22.765625 L 20.859375 -7.980469 Z M 51.605469 21.363281 " clip-rule="nonzero"/></clipPath><clipPath id="2660476132"><path d="M 36.933594 36.738281 C 45.039062 28.246094 44.722656 14.792969 36.234375 6.691406 C 27.742188 -1.410156 14.289062 -1.097656 6.1875 7.394531 C -1.914062 15.882812 -1.601562 29.335938 6.890625 37.4375 C 15.378906 45.542969 28.832031 45.226562 36.933594 36.738281 Z M 36.933594 36.738281 " clip-rule="nonzero"/></clipPath><clipPath id="49b57b5548"><rect x="0" width="43" y="0" height="44"/></clipPath><clipPath id="7ef6480007"><path d="M 417.964844 187.515625 L 581.320312 187.515625 L 581.320312 350.871094 L 417.964844 350.871094 Z M 417.964844 187.515625 " clip-rule="nonzero"/></clipPath><clipPath id="3a76e14325"><path d="M 581 187.515625 L 744.210938 187.515625 L 744.210938 350.871094 L 581 350.871094 Z M 581 187.515625 " clip-rule="nonzero"/></clipPath><clipPath id="54fc5b47a0"><path d="M 671.800781 350.664062 L 744.238281 350.664062 L 744.238281 581.355469 L 671.800781 581.355469 Z M 671.800781 350.664062 " clip-rule="nonzero"/></clipPath><clipPath id="b85ce278de"><path d="M 0.800781 0.664062 L 73.238281 0.664062 L 73.238281 231.355469 L 0.800781 231.355469 Z M 0.800781 0.664062 " clip-rule="nonzero"/></clipPath><clipPath id="c7a4a85617"><rect x="0" width="74" y="0" height="232"/></clipPath><clipPath id="5904474df5"><path d="M 612 526 L 656 526 L 656 570 L 612 570 Z M 612 526 " clip-rule="nonzero"/></clipPath><clipPath id="17dcc980e4"><path d="M 603.738281 548.054688 L 633.792969 518 L 663.847656 548.054688 L 633.792969 578.105469 Z M 603.738281 548.054688 " clip-rule="nonzero"/></clipPath><clipPath id="d30ad98608"><path d="M 618.765625 533.027344 C 610.464844 541.324219 610.464844 554.78125 618.765625 563.082031 C 627.066406 571.378906 640.519531 571.378906 648.820312 563.082031 C 657.117188 554.78125 657.117188 541.324219 648.820312 533.027344 C 640.519531 524.726562 627.066406 524.726562 618.765625 533.027344 Z M 618.765625 533.027344 " clip-rule="nonzero"/></clipPath><clipPath id="23664027a5"><path d="M 0 0 L 44 0 L 44 44 L 0 44 Z M 0 0 " clip-rule="nonzero"/></clipPath><clipPath id="31aba71f5b"><path d="M -8.261719 22.054688 L 21.792969 -8 L 51.847656 22.054688 L 21.792969 52.105469 Z M -8.261719 22.054688 " clip-rule="nonzero"/></clipPath><clipPath id="233d9522ff"><path d="M 6.765625 7.027344 C -1.535156 15.324219 -1.535156 28.78125 6.765625 37.082031 C 15.066406 45.378906 28.519531 45.378906 36.820312 37.082031 C 45.117188 28.78125 45.117188 15.324219 36.820312 7.027344 C 28.519531 -1.273438 15.066406 -1.273438 6.765625 7.027344 Z M 6.765625 7.027344 " clip-rule="nonzero"/></clipPath><clipPath id="535dd02f86"><rect x="0" width="44" y="0" height="44"/></clipPath><clipPath id="da73fb8931"><path d="M 612 450 L 656 450 L 656 494 L 612 494 Z M 612 450 " clip-rule="nonzero"/></clipPath><clipPath id="9d0a184714"><path d="M 603.738281 471.851562 L 633.792969 441.800781 L 663.847656 471.851562 L 633.792969 501.90625 Z M 603.738281 471.851562 " clip-rule="nonzero"/></clipPath><clipPath id="ce09fbb2e9"><path d="M 618.765625 456.828125 C 610.464844 465.125 610.464844 478.582031 618.765625 486.878906 C 627.066406 495.179688 640.519531 495.179688 648.820312 486.878906 C 657.117188 478.582031 657.117188 465.125 648.820312 456.828125 C 640.519531 448.527344 627.066406 448.527344 618.765625 456.828125 Z M 618.765625 456.828125 " clip-rule="nonzero"/></clipPath><clipPath id="814ae3c63b"><path d="M 0 0 L 44 0 L 44 44 L 0 44 Z M 0 0 " clip-rule="nonzero"/></clipPath><clipPath id="45740ad094"><path d="M -8.261719 21.851562 L 21.792969 -8.199219 L 51.847656 21.851562 L 21.792969 51.90625 Z M -8.261719 21.851562 " clip-rule="nonzero"/></clipPath><clipPath id="917f636fa4"><path d="M 6.765625 6.828125 C -1.535156 15.125 -1.535156 28.582031 6.765625 36.878906 C 15.066406 45.179688 28.519531 45.179688 36.820312 36.878906 C 45.117188 28.582031 45.117188 15.125 36.820312 6.828125 C 28.519531 -1.472656 15.066406 -1.472656 6.765625 6.828125 Z M 6.765625 6.828125 " clip-rule="nonzero"/></clipPath><clipPath id="2609556ccf"><rect x="0" width="44" y="0" height="44"/></clipPath><clipPath id="cac7719ae1"><path d="M 612 374 L 656 374 L 656 417 L 612 417 Z M 612 374 " clip-rule="nonzero"/></clipPath><clipPath id="46520e63ec"><path d="M 603.738281 395.652344 L 633.792969 365.597656 L 663.847656 395.652344 L 633.792969 425.707031 Z M 603.738281 395.652344 " clip-rule="nonzero"/></clipPath><clipPath id="a034a5eff4"><path d="M 618.765625 380.625 C 610.464844 388.925781 610.464844 402.382812 618.765625 410.679688 C 627.066406 418.980469 640.519531 418.980469 648.820312 410.679688 C 657.117188 402.382812 657.117188 388.925781 648.820312 380.625 C 640.519531 372.328125 627.066406 372.328125 618.765625 380.625 Z M 618.765625 380.625 " clip-rule="nonzero"/></clipPath><clipPath id="85fe864486"><path d="M 0 0 L 44 0 L 44 43 L 0 43 Z M 0 0 " clip-rule="nonzero"/></clipPath><clipPath id="6eb8740c9d"><path d="M -8.261719 21.652344 L 21.792969 -8.402344 L 51.847656 21.652344 L 21.792969 51.707031 Z M -8.261719 21.652344 " clip-rule="nonzero"/></clipPath><clipPath id="9ef87ab8e2"><path d="M 6.765625 6.625 C -1.535156 14.925781 -1.535156 28.382812 6.765625 36.679688 C 15.066406 44.980469 28.519531 44.980469 36.820312 36.679688 C 45.117188 28.382812 45.117188 14.925781 36.820312 6.625 C 28.519531 -1.671875 15.066406 -1.671875 6.765625 6.625 Z M 6.765625 6.625 " clip-rule="nonzero"/></clipPath><clipPath id="23b3d5e1bc"><rect x="0" width="44" y="0" height="43"/></clipPath><clipPath id="ad7650708f"><path d="M 603 288 L 647 288 L 647 331 L 603 331 Z M 603 288 " clip-rule="nonzero"/></clipPath><clipPath id="606a02266d"><path d="M 594.75 309.320312 L 624.804688 279.265625 L 654.859375 309.320312 L 624.804688 339.371094 Z M 594.75 309.320312 " clip-rule="nonzero"/></clipPath><clipPath id="a052f9ecdf"><path d="M 609.777344 294.292969 C 601.476562 302.589844 601.476562 316.046875 609.777344 324.347656 C 618.078125 332.644531 631.53125 332.644531 639.832031 324.347656 C 648.128906 316.046875 648.128906 302.589844 639.832031 294.292969 C 631.53125 285.992188 618.078125 285.992188 609.777344 294.292969 Z M 609.777344 294.292969 " clip-rule="nonzero"/></clipPath><clipPath id="081e070486"><path d="M 0 0 L 44 0 L 44 43 L 0 43 Z M 0 0 " clip-rule="nonzero"/></clipPath><clipPath id="888252e03f"><path d="M -8.25 21.320312 L 21.804688 -8.734375 L 51.859375 21.320312 L 21.804688 51.371094 Z M -8.25 21.320312 " clip-rule="nonzero"/></clipPath><clipPath id="4a68e6f02c"><path d="M 6.777344 6.292969 C -1.523438 14.589844 -1.523438 28.046875 6.777344 36.347656 C 15.078125 44.644531 28.53125 44.644531 36.832031 36.347656 C 45.128906 28.046875 45.128906 14.589844 36.832031 6.292969 C 28.53125 -2.007812 15.078125 -2.007812 6.777344 6.292969 Z M 6.777344 6.292969 " clip-rule="nonzero"/></clipPath><clipPath id="8407574352"><rect x="0" width="44" y="0" height="43"/></clipPath><clipPath id="1d2060e48e"><path d="M 513 292 L 556 292 L 556 335 L 513 335 Z M 513 292 " clip-rule="nonzero"/></clipPath><clipPath id="5e5fa93d9c"><path d="M 504.558594 313.34375 L 534.613281 283.292969 L 564.667969 313.34375 L 534.613281 343.398438 Z M 504.558594 313.34375 " clip-rule="nonzero"/></clipPath><clipPath id="041fd1e31b"><path d="M 519.585938 298.320312 C 511.285156 306.617188 511.285156 320.074219 519.585938 328.371094 C 527.886719 336.671875 541.339844 336.671875 549.640625 328.371094 C 557.9375 320.074219 557.9375 306.617188 549.640625 298.320312 C 541.339844 290.019531 527.886719 290.019531 519.585938 298.320312 Z M 519.585938 298.320312 " clip-rule="nonzero"/></clipPath><clipPath id="7420ce7fef"><path d="M 0 0 L 43 0 L 43 43 L 0 43 Z M 0 0 " clip-rule="nonzero"/></clipPath><clipPath id="ee2ff81fff"><path d="M -8.441406 21.34375 L 21.613281 -8.707031 L 51.667969 21.34375 L 21.613281 51.398438 Z M -8.441406 21.34375 " clip-rule="nonzero"/></clipPath><clipPath id="e3c9f450f3"><path d="M 6.585938 6.320312 C -1.714844 14.617188 -1.714844 28.074219 6.585938 36.371094 C 14.886719 44.671875 28.339844 44.671875 36.640625 36.371094 C 44.9375 28.074219 44.9375 14.617188 36.640625 6.320312 C 28.339844 -1.980469 14.886719 -1.980469 6.585938 6.320312 Z M 6.585938 6.320312 " clip-rule="nonzero"/></clipPath><clipPath id="00d73de142"><rect x="0" width="43" y="0" height="43"/></clipPath><clipPath id="cb84f388aa"><path d="M 374 266 L 418 266 L 418 309 L 374 309 Z M 374 266 " clip-rule="nonzero"/></clipPath><clipPath id="cbe4b2c75d"><path d="M 365.941406 287.285156 L 395.992188 257.230469 L 426.046875 287.285156 L 395.992188 317.339844 Z M 365.941406 287.285156 " clip-rule="nonzero"/></clipPath><clipPath id="56bd179e8a"><path d="M 380.964844 272.257812 C 372.667969 280.558594 372.667969 294.015625 380.964844 302.3125 C 389.265625 310.613281 402.722656 310.613281 411.019531 302.3125 C 419.320312 294.015625 419.320312 280.558594 411.019531 272.257812 C 402.722656 263.960938 389.265625 263.960938 380.964844 272.257812 Z M 380.964844 272.257812 " clip-rule="nonzero"/></clipPath><clipPath id="31fb5819ca"><path d="M 0 0 L 44 0 L 44 43 L 0 43 Z M 0 0 " clip-rule="nonzero"/></clipPath><clipPath id="27dd961c36"><path d="M -8.058594 21.285156 L 21.992188 -8.769531 L 52.046875 21.285156 L 21.992188 51.339844 Z M -8.058594 21.285156 " clip-rule="nonzero"/></clipPath><clipPath id="4ea9025475"><path d="M 6.964844 6.257812 C -1.332031 14.558594 -1.332031 28.015625 6.964844 36.3125 C 15.265625 44.613281 28.722656 44.613281 37.019531 36.3125 C 45.320312 28.015625 45.320312 14.558594 37.019531 6.257812 C 28.722656 -2.039062 15.265625 -2.039062 6.964844 6.257812 Z M 6.964844 6.257812 " clip-rule="nonzero"/></clipPath><clipPath id="8116c7fb37"><rect x="0" width="44" y="0" height="43"/></clipPath><clipPath id="0b58f853f5"><path d="M 418 175 L 461 175 L 461 218 L 418 218 Z M 418 175 " clip-rule="nonzero"/></clipPath><clipPath id="0910008f78"><path d="M 409.203125 196.449219 L 439.257812 166.394531 L 469.3125 196.449219 L 439.257812 226.503906 Z M 409.203125 196.449219 " clip-rule="nonzero"/></clipPath><clipPath id="5c3d7a8bae"><path d="M 424.230469 181.421875 C 415.933594 189.722656 415.933594 203.175781 424.230469 211.476562 C 432.53125 219.773438 445.984375 219.773438 454.285156 211.476562 C 462.585938 203.175781 462.585938 189.722656 454.285156 181.421875 C 445.984375 173.121094 432.53125 173.121094 424.230469 181.421875 Z M 424.230469 181.421875 " clip-rule="nonzero"/></clipPath><clipPath id="76a26b618c"><path d="M 0 0 L 43 0 L 43 43 L 0 43 Z M 0 0 " clip-rule="nonzero"/></clipPath><clipPath id="c6c7db0085"><path d="M -8.796875 21.449219 L 21.257812 -8.605469 L 51.3125 21.449219 L 21.257812 51.503906 Z M -8.796875 21.449219 " clip-rule="nonzero"/></clipPath><clipPath id="fc68e80150"><path d="M 6.230469 6.421875 C -2.066406 14.722656 -2.066406 28.175781 6.230469 36.476562 C 14.53125 44.773438 27.984375 44.773438 36.285156 36.476562 C 44.585938 28.175781 44.585938 14.722656 36.285156 6.421875 C 27.984375 -1.878906 14.53125 -1.878906 6.230469 6.421875 Z M 6.230469 6.421875 " clip-rule="nonzero"/></clipPath><clipPath id="843b768210"><rect x="0" width="43" y="0" height="43"/></clipPath><clipPath id="132190984a"><path d="M 513 138 L 556 138 L 556 182 L 513 182 Z M 513 138 " clip-rule="nonzero"/></clipPath><clipPath id="2be6eecaac"><path d="M 504.558594 159.824219 L 534.613281 129.769531 L 564.667969 159.824219 L 534.613281 189.878906 Z M 504.558594 159.824219 " clip-rule="nonzero"/></clipPath><clipPath id="99962ba6b0"><path d="M 519.585938 144.796875 C 511.285156 153.097656 511.285156 166.550781 519.585938 174.851562 C 527.886719 183.148438 541.339844 183.148438 549.640625 174.851562 C 557.9375 166.550781 557.9375 153.097656 549.640625 144.796875 C 541.339844 136.496094 527.886719 136.496094 519.585938 144.796875 Z M 519.585938 144.796875 " clip-rule="nonzero"/></clipPath><clipPath id="02afa34b9e"><path d="M 0 0 L 43 0 L 43 44 L 0 44 Z M 0 0 " clip-rule="nonzero"/></clipPath><clipPath id="2dd072fc60"><path d="M -8.441406 21.824219 L 21.613281 -8.230469 L 51.667969 21.824219 L 21.613281 51.878906 Z M -8.441406 21.824219 " clip-rule="nonzero"/></clipPath><clipPath id="253c57f0b2"><path d="M 6.585938 6.796875 C -1.714844 15.097656 -1.714844 28.550781 6.585938 36.851562 C 14.886719 45.148438 28.339844 45.148438 36.640625 36.851562 C 44.9375 28.550781 44.9375 15.097656 36.640625 6.796875 C 28.339844 -1.503906 14.886719 -1.503906 6.585938 6.796875 Z M 6.585938 6.796875 " clip-rule="nonzero"/></clipPath><clipPath id="c22188095e"><rect x="0" width="43" y="0" height="44"/></clipPath><clipPath id="a8feca2b4f"><path d="M 603 136 L 647 136 L 647 179 L 603 179 Z M 603 136 " clip-rule="nonzero"/></clipPath><clipPath id="86dc297e54"><path d="M 594.765625 157.460938 L 624.820312 127.40625 L 654.875 157.460938 L 624.820312 187.515625 Z M 594.765625 157.460938 " clip-rule="nonzero"/></clipPath><clipPath id="ec0f8bfaab"><path d="M 609.792969 142.433594 C 601.496094 150.734375 601.496094 164.1875 609.792969 172.488281 C 618.09375 180.785156 631.546875 180.785156 639.847656 172.488281 C 648.148438 164.1875 648.148438 150.734375 639.847656 142.433594 C 631.546875 134.132812 618.09375 134.132812 609.792969 142.433594 Z M 609.792969 142.433594 " clip-rule="nonzero"/></clipPath><clipPath id="f886453d73"><path d="M 0 0 L 44 0 L 44 43 L 0 43 Z M 0 0 " clip-rule="nonzero"/></clipPath><clipPath id="31452dd48d"><path d="M -8.234375 21.460938 L 21.820312 -8.59375 L 51.875 21.460938 L 21.820312 51.515625 Z M -8.234375 21.460938 " clip-rule="nonzero"/></clipPath><clipPath id="04515f425c"><path d="M 6.792969 6.433594 C -1.503906 14.734375 -1.503906 28.1875 6.792969 36.488281 C 15.09375 44.785156 28.546875 44.785156 36.847656 36.488281 C 45.148438 28.1875 45.148438 14.734375 36.847656 6.433594 C 28.546875 -1.867188 15.09375 -1.867188 6.792969 6.433594 Z M 6.792969 6.433594 " clip-rule="nonzero"/></clipPath><clipPath id="886c2368bd"><rect x="0" width="44" y="0" height="43"/></clipPath><clipPath id="d95f32aefd"><path d="M 707 175 L 750 175 L 750 218 L 707 218 Z M 707 175 " clip-rule="nonzero"/></clipPath><clipPath id="997536dfc5"><path d="M 698.21875 196.449219 L 728.273438 166.394531 L 758.328125 196.449219 L 728.273438 226.503906 Z M 698.21875 196.449219 " clip-rule="nonzero"/></clipPath><clipPath id="ffb6d6abf7"><path d="M 713.246094 181.421875 C 704.945312 189.722656 704.945312 203.175781 713.246094 211.476562 C 721.546875 219.773438 735 219.773438 743.300781 211.476562 C 751.597656 203.175781 751.597656 189.722656 743.300781 181.421875 C 735 173.121094 721.546875 173.121094 713.246094 181.421875 Z M 713.246094 181.421875 " clip-rule="nonzero"/></clipPath><clipPath id="9012a1890c"><path d="M 0 0 L 43 0 L 43 43 L 0 43 Z M 0 0 " clip-rule="nonzero"/></clipPath><clipPath id="a20d29cd5a"><path d="M -8.78125 21.449219 L 21.273438 -8.605469 L 51.328125 21.449219 L 21.273438 51.503906 Z M -8.78125 21.449219 " clip-rule="nonzero"/></clipPath><clipPath id="04bfd173f0"><path d="M 6.246094 6.421875 C -2.054688 14.722656 -2.054688 28.175781 6.246094 36.476562 C 14.546875 44.773438 28 44.773438 36.300781 36.476562 C 44.597656 28.175781 44.597656 14.722656 36.300781 6.421875 C 28 -1.878906 14.546875 -1.878906 6.246094 6.421875 Z M 6.246094 6.421875 " clip-rule="nonzero"/></clipPath><clipPath id="9054f5690b"><rect x="0" width="43" y="0" height="43"/></clipPath><clipPath id="4c5df24431"><path d="M 758 258 L 801 258 L 801 301 L 758 301 Z M 758 258 " clip-rule="nonzero"/></clipPath><clipPath id="c8d25963fd"><path d="M 749.246094 279.265625 L 779.296875 249.210938 L 809.351562 279.265625 L 779.296875 309.320312 Z M 749.246094 279.265625 " clip-rule="nonzero"/></clipPath><clipPath id="5468173db6"><path d="M 764.269531 264.238281 C 755.972656 272.535156 755.972656 285.992188 764.269531 294.292969 C 772.570312 302.589844 786.027344 302.589844 794.324219 294.292969 C 802.625 285.992188 802.625 272.535156 794.324219 264.238281 C 786.027344 255.9375 772.570312 255.9375 764.269531 264.238281 Z M 764.269531 264.238281 " clip-rule="nonzero"/></clipPath><clipPath id="9b74755b07"><path d="M 0 0 L 43 0 L 43 43 L 0 43 Z M 0 0 " clip-rule="nonzero"/></clipPath><clipPath id="1370b07181"><path d="M -8.753906 21.265625 L 21.296875 -8.789062 L 51.351562 21.265625 L 21.296875 51.320312 Z M -8.753906 21.265625 " clip-rule="nonzero"/></clipPath><clipPath id="e5b6f3b9cc"><path d="M 6.269531 6.238281 C -2.027344 14.535156 -2.027344 27.992188 6.269531 36.292969 C 14.570312 44.589844 28.027344 44.589844 36.324219 36.292969 C 44.625 27.992188 44.625 14.535156 36.324219 6.238281 C 28.027344 -2.0625 14.570312 -2.0625 6.269531 6.238281 Z M 6.269531 6.238281 " clip-rule="nonzero"/></clipPath><clipPath id="c51c5b62b6"><rect x="0" width="43" y="0" height="43"/></clipPath><clipPath id="015d5c9e76"><path d="M 763 368 L 806 368 L 806 412 L 763 412 Z M 763 368 " clip-rule="nonzero"/></clipPath><clipPath id="aa6ea54369"><path d="M 754.199219 390.171875 L 784.253906 360.117188 L 814.304688 390.171875 L 784.253906 420.226562 Z M 754.199219 390.171875 " clip-rule="nonzero"/></clipPath><clipPath id="d0193939bb"><path d="M 769.226562 375.144531 C 760.925781 383.445312 760.925781 396.898438 769.226562 405.199219 C 777.523438 413.496094 790.980469 413.496094 799.277344 405.199219 C 807.578125 396.898438 807.578125 383.445312 799.277344 375.144531 C 790.980469 366.847656 777.523438 366.847656 769.226562 375.144531 Z M 769.226562 375.144531 " clip-rule="nonzero"/></clipPath><clipPath id="fcb1ff24f6"><path d="M 0 0 L 43 0 L 43 44 L 0 44 Z M 0 0 " clip-rule="nonzero"/></clipPath><clipPath id="8524ff686e"><path d="M -8.800781 22.171875 L 21.253906 -7.882812 L 51.304688 22.171875 L 21.253906 52.226562 Z M -8.800781 22.171875 " clip-rule="nonzero"/></clipPath><clipPath id="ddd30c602d"><path d="M 6.226562 7.144531 C -2.074219 15.445312 -2.074219 28.898438 6.226562 37.199219 C 14.523438 45.496094 27.980469 45.496094 36.277344 37.199219 C 44.578125 28.898438 44.578125 15.445312 36.277344 7.144531 C 27.980469 -1.152344 14.523438 -1.152344 6.226562 7.144531 Z M 6.226562 7.144531 " clip-rule="nonzero"/></clipPath><clipPath id="16b10bf0a8"><rect x="0" width="43" y="0" height="44"/></clipPath><clipPath id="3dcbb1d9fb"><path d="M 763 445 L 806 445 L 806 489 L 763 489 Z M 763 445 " clip-rule="nonzero"/></clipPath><clipPath id="67a5006b8b"><path d="M 754.199219 466.949219 L 784.253906 436.898438 L 814.304688 466.949219 L 784.253906 497.003906 Z M 754.199219 466.949219 " clip-rule="nonzero"/></clipPath><clipPath id="bca3978bbc"><path d="M 769.226562 451.921875 C 760.925781 460.222656 760.925781 473.679688 769.226562 481.976562 C 777.523438 490.277344 790.980469 490.277344 799.277344 481.976562 C 807.578125 473.679688 807.578125 460.222656 799.277344 451.921875 C 790.980469 443.625 777.523438 443.625 769.226562 451.921875 Z M 769.226562 451.921875 " clip-rule="nonzero"/></clipPath><clipPath id="cf16108e02"><path d="M 0 0 L 43 0 L 43 44 L 0 44 Z M 0 0 " clip-rule="nonzero"/></clipPath><clipPath id="1032a3c935"><path d="M -8.800781 21.949219 L 21.253906 -8.101562 L 51.304688 21.949219 L 21.253906 52.003906 Z M -8.800781 21.949219 " clip-rule="nonzero"/></clipPath><clipPath id="8fda4c31a4"><path d="M 6.226562 6.921875 C -2.074219 15.222656 -2.074219 28.679688 6.226562 36.976562 C 14.523438 45.277344 27.980469 45.277344 36.277344 36.976562 C 44.578125 28.679688 44.578125 15.222656 36.277344 6.921875 C 27.980469 -1.375 14.523438 -1.375 6.226562 6.921875 Z M 6.226562 6.921875 " clip-rule="nonzero"/></clipPath><clipPath id="ab632f157a"><rect x="0" width="43" y="0" height="44"/></clipPath><clipPath id="2c50f2a2c4"><path d="M 763 522 L 806 522 L 806 565 L 763 565 Z M 763 522 " clip-rule="nonzero"/></clipPath><clipPath id="8b49873a55"><path d="M 754.199219 543.730469 L 784.253906 513.675781 L 814.304688 543.730469 L 784.253906 573.785156 Z M 754.199219 543.730469 " clip-rule="nonzero"/></clipPath><clipPath id="4ac861099e"><path d="M 769.226562 528.703125 C 760.925781 537 760.925781 550.457031 769.226562 558.757812 C 777.523438 567.054688 790.980469 567.054688 799.277344 558.757812 C 807.578125 550.457031 807.578125 537 799.277344 528.703125 C 790.980469 520.402344 777.523438 520.402344 769.226562 528.703125 Z M 769.226562 528.703125 " clip-rule="nonzero"/></clipPath><clipPath id="b67229baea"><path d="M 0 0 L 43 0 L 43 43 L 0 43 Z M 0 0 " clip-rule="nonzero"/></clipPath><clipPath id="1e9f8373a2"><path d="M -8.800781 21.730469 L 21.253906 -8.324219 L 51.304688 21.730469 L 21.253906 51.785156 Z M -8.800781 21.730469 " clip-rule="nonzero"/></clipPath><clipPath id="dfeb52e78d"><path d="M 6.226562 6.703125 C -2.074219 15 -2.074219 28.457031 6.226562 36.757812 C 14.523438 45.054688 27.980469 45.054688 36.277344 36.757812 C 44.578125 28.457031 44.578125 15 36.277344 6.703125 C 27.980469 -1.597656 14.523438 -1.597656 6.226562 6.703125 Z M 6.226562 6.703125 " clip-rule="nonzero"/></clipPath><clipPath id="d1f6bdd4f7"><rect x="0" width="43" y="0" height="43"/></clipPath><clipPath id="a7011d94e3"><path d="M 417.691406 353.496094 L 490.128906 353.496094 L 490.128906 584.1875 L 417.691406 584.1875 Z M 417.691406 353.496094 " clip-rule="nonzero"/></clipPath><clipPath id="a41638f1bf"><path d="M 0.691406 0.496094 L 73.128906 0.496094 L 73.128906 231.1875 L 0.691406 231.1875 Z M 0.691406 0.496094 " clip-rule="nonzero"/></clipPath><clipPath id="45498aba00"><rect x="0" width="74" y="0" height="232"/></clipPath><clipPath id="e3e93a5635"><path d="M 360 522 L 404 522 L 404 566 L 360 566 Z M 360 522 " clip-rule="nonzero"/></clipPath><clipPath id="11ef399cf4"><path d="M 351.707031 543.980469 L 381.761719 513.925781 L 411.816406 543.980469 L 381.761719 574.035156 Z M 351.707031 543.980469 " clip-rule="nonzero"/></clipPath><clipPath id="6e6eb04421"><path d="M 366.734375 528.953125 C 358.433594 537.253906 358.433594 550.707031 366.734375 559.007812 C 375.035156 567.304688 388.488281 567.304688 396.789062 559.007812 C 405.085938 550.707031 405.085938 537.253906 396.789062 528.953125 C 388.488281 520.65625 375.035156 520.65625 366.734375 528.953125 Z M 366.734375 528.953125 " clip-rule="nonzero"/></clipPath><clipPath id="8f6f555a17"><path d="M 0 0 L 44 0 L 44 44 L 0 44 Z M 0 0 " clip-rule="nonzero"/></clipPath><clipPath id="bda40f9024"><path d="M -8.292969 21.980469 L 21.761719 -8.074219 L 51.816406 21.980469 L 21.761719 52.035156 Z M -8.292969 21.980469 " clip-rule="nonzero"/></clipPath><clipPath id="b6dd41b6cc"><path d="M 6.734375 6.953125 C -1.566406 15.253906 -1.566406 28.707031 6.734375 37.007812 C 15.035156 45.304688 28.488281 45.304688 36.789062 37.007812 C 45.085938 28.707031 45.085938 15.253906 36.789062 6.953125 C 28.488281 -1.34375 15.035156 -1.34375 6.734375 6.953125 Z M 6.734375 6.953125 " clip-rule="nonzero"/></clipPath><clipPath id="09537582a1"><rect x="0" width="44" y="0" height="44"/></clipPath><clipPath id="b3bb806eaa"><path d="M 360 445 L 404 445 L 404 489 L 360 489 Z M 360 445 " clip-rule="nonzero"/></clipPath><clipPath id="4574f46bc7"><path d="M 351.707031 467.074219 L 381.761719 437.023438 L 411.816406 467.074219 L 381.761719 497.128906 Z M 351.707031 467.074219 " clip-rule="nonzero"/></clipPath><clipPath id="ef88ec4f56"><path d="M 366.734375 452.050781 C 358.433594 460.347656 358.433594 473.804688 366.734375 482.101562 C 375.035156 490.402344 388.488281 490.402344 396.789062 482.101562 C 405.085938 473.804688 405.085938 460.347656 396.789062 452.050781 C 388.488281 443.75 375.035156 443.75 366.734375 452.050781 Z M 366.734375 452.050781 " clip-rule="nonzero"/></clipPath><clipPath id="c7294985d7"><path d="M 0 0 L 44 0 L 44 44 L 0 44 Z M 0 0 " clip-rule="nonzero"/></clipPath><clipPath id="2bf1c95140"><path d="M -8.292969 22.074219 L 21.761719 -7.976562 L 51.816406 22.074219 L 21.761719 52.128906 Z M -8.292969 22.074219 " clip-rule="nonzero"/></clipPath><clipPath id="3cc0a22741"><path d="M 6.734375 7.050781 C -1.566406 15.347656 -1.566406 28.804688 6.734375 37.101562 C 15.035156 45.402344 28.488281 45.402344 36.789062 37.101562 C 45.085938 28.804688 45.085938 15.347656 36.789062 7.050781 C 28.488281 -1.25 15.035156 -1.25 6.734375 7.050781 Z M 6.734375 7.050781 " clip-rule="nonzero"/></clipPath><clipPath id="cc40bdc0b1"><rect x="0" width="44" y="0" height="44"/></clipPath><clipPath id="7d97a8e429"><path d="M 360 368 L 404 368 L 404 412 L 360 412 Z M 360 368 " clip-rule="nonzero"/></clipPath><clipPath id="fe1837fd39"><path d="M 351.707031 390.171875 L 381.761719 360.117188 L 411.816406 390.171875 L 381.761719 420.226562 Z M 351.707031 390.171875 " clip-rule="nonzero"/></clipPath><clipPath id="2f3bffdfba"><path d="M 366.734375 375.144531 C 358.433594 383.445312 358.433594 396.898438 366.734375 405.199219 C 375.035156 413.496094 388.488281 413.496094 396.789062 405.199219 C 405.085938 396.898438 405.085938 383.445312 396.789062 375.144531 C 388.488281 366.847656 375.035156 366.847656 366.734375 375.144531 Z M 366.734375 375.144531 " clip-rule="nonzero"/></clipPath><clipPath id="4babb61ac8"><path d="M 0 0 L 44 0 L 44 44 L 0 44 Z M 0 0 " clip-rule="nonzero"/></clipPath><clipPath id="dfba4eb177"><path d="M -8.292969 22.171875 L 21.761719 -7.882812 L 51.816406 22.171875 L 21.761719 52.226562 Z M -8.292969 22.171875 " clip-rule="nonzero"/></clipPath><clipPath id="fd3c0f7cd9"><path d="M 6.734375 7.144531 C -1.566406 15.445312 -1.566406 28.898438 6.734375 37.199219 C 15.035156 45.496094 28.488281 45.496094 36.789062 37.199219 C 45.085938 28.898438 45.085938 15.445312 36.789062 7.144531 C 28.488281 -1.152344 15.035156 -1.152344 6.734375 7.144531 Z M 6.734375 7.144531 " clip-rule="nonzero"/></clipPath><clipPath id="659a3a9c02"><rect x="0" width="44" y="0" height="44"/></clipPath><clipPath id="c21fbfeb37"><path d="M 508 371 L 552 371 L 552 415 L 508 415 Z M 508 371 " clip-rule="nonzero"/></clipPath><clipPath id="dc204f2f23"><path d="M 500.089844 393.003906 L 530.144531 362.949219 L 560.199219 393.003906 L 530.144531 423.058594 Z M 500.089844 393.003906 " clip-rule="nonzero"/></clipPath><clipPath id="c6e53deecb"><path d="M 515.117188 377.976562 C 506.816406 386.277344 506.816406 399.730469 515.117188 408.03125 C 523.414062 416.332031 536.871094 416.332031 545.171875 408.03125 C 553.46875 399.730469 553.46875 386.277344 545.171875 377.976562 C 536.871094 369.679688 523.414062 369.679688 515.117188 377.976562 Z M 515.117188 377.976562 " clip-rule="nonzero"/></clipPath><clipPath id="c629141ea2"><path d="M 0 0 L 44 0 L 44 44 L 0 44 Z M 0 0 " clip-rule="nonzero"/></clipPath><clipPath id="7ad8300e78"><path d="M -7.910156 22.003906 L 22.144531 -8.050781 L 52.199219 22.003906 L 22.144531 52.058594 Z M -7.910156 22.003906 " clip-rule="nonzero"/></clipPath><clipPath id="ba090d9458"><path d="M 7.117188 6.976562 C -1.183594 15.277344 -1.183594 28.730469 7.117188 37.03125 C 15.414062 45.332031 28.871094 45.332031 37.171875 37.03125 C 45.46875 28.730469 45.46875 15.277344 37.171875 6.976562 C 28.871094 -1.320312 15.414062 -1.320312 7.117188 6.976562 Z M 7.117188 6.976562 " clip-rule="nonzero"/></clipPath><clipPath id="5b8034e08f"><rect x="0" width="44" y="0" height="44"/></clipPath><clipPath id="82733b14b0"><path d="M 508 443 L 552 443 L 552 486 L 508 486 Z M 508 443 " clip-rule="nonzero"/></clipPath><clipPath id="8aeed29688"><path d="M 500.089844 464.679688 L 530.144531 434.625 L 560.199219 464.679688 L 530.144531 494.734375 Z M 500.089844 464.679688 " clip-rule="nonzero"/></clipPath><clipPath id="2a05b51f4d"><path d="M 515.117188 449.652344 C 506.816406 457.953125 506.816406 471.40625 515.117188 479.707031 C 523.414062 488.003906 536.871094 488.003906 545.171875 479.707031 C 553.46875 471.40625 553.46875 457.953125 545.171875 449.652344 C 536.871094 441.351562 523.414062 441.351562 515.117188 449.652344 Z M 515.117188 449.652344 " clip-rule="nonzero"/></clipPath><clipPath id="8a8f5adcce"><path d="M 0 0 L 44 0 L 44 43 L 0 43 Z M 0 0 " clip-rule="nonzero"/></clipPath><clipPath id="aa056d2b48"><path d="M -7.910156 21.679688 L 22.144531 -8.375 L 52.199219 21.679688 L 22.144531 51.734375 Z M -7.910156 21.679688 " clip-rule="nonzero"/></clipPath><clipPath id="74240e5a81"><path d="M 7.117188 6.652344 C -1.183594 14.953125 -1.183594 28.40625 7.117188 36.707031 C 15.414062 45.003906 28.871094 45.003906 37.171875 36.707031 C 45.46875 28.40625 45.46875 14.953125 37.171875 6.652344 C 28.871094 -1.648438 15.414062 -1.648438 7.117188 6.652344 Z M 7.117188 6.652344 " clip-rule="nonzero"/></clipPath><clipPath id="6c0c1311cd"><rect x="0" width="44" y="0" height="43"/></clipPath><clipPath id="fc36612262"><path d="M 508 515 L 552 515 L 552 558 L 508 558 Z M 508 515 " clip-rule="nonzero"/></clipPath><clipPath id="86c7b40b93"><path d="M 500.089844 536.355469 L 530.144531 506.300781 L 560.199219 536.355469 L 530.144531 566.410156 Z M 500.089844 536.355469 " clip-rule="nonzero"/></clipPath><clipPath id="d2d5dea70a"><path d="M 515.117188 521.328125 C 506.816406 529.628906 506.816406 543.082031 515.117188 551.382812 C 523.414062 559.679688 536.871094 559.679688 545.171875 551.382812 C 553.46875 543.082031 553.46875 529.628906 545.171875 521.328125 C 536.871094 513.027344 523.414062 513.027344 515.117188 521.328125 Z M 515.117188 521.328125 " clip-rule="nonzero"/></clipPath><clipPath id="6fe13dfde5"><path d="M 0 0 L 44 0 L 44 43 L 0 43 Z M 0 0 " clip-rule="nonzero"/></clipPath><clipPath id="c369927fd9"><path d="M -7.910156 21.355469 L 22.144531 -8.699219 L 52.199219 21.355469 L 22.144531 51.410156 Z M -7.910156 21.355469 " clip-rule="nonzero"/></clipPath><clipPath id="c002ca39d4"><path d="M 7.117188 6.328125 C -1.183594 14.628906 -1.183594 28.082031 7.117188 36.382812 C 15.414062 44.679688 28.871094 44.679688 37.171875 36.382812 C 45.46875 28.082031 45.46875 14.628906 37.171875 6.328125 C 28.871094 -1.972656 15.414062 -1.972656 7.117188 6.328125 Z M 7.117188 6.328125 " clip-rule="nonzero"/></clipPath><clipPath id="1dc8fdc64c"><rect x="0" width="44" y="0" height="43"/></clipPath><clipPath id="1960b374f5"><path d="M 502 1473 L 545 1473 L 545 1517 L 502 1517 Z M 502 1473 " clip-rule="nonzero"/></clipPath><clipPath id="1a984a59d5"><path d="M 553.492188 1494.210938 L 524.148438 1524.957031 L 493.398438 1495.613281 L 522.742188 1464.867188 Z M 553.492188 1494.210938 " clip-rule="nonzero"/></clipPath><clipPath id="5d7dac66e6"><path d="M 538.820312 1509.582031 C 546.921875 1501.09375 546.609375 1487.640625 538.117188 1479.539062 C 529.625 1471.433594 516.175781 1471.75 508.070312 1480.238281 C 499.96875 1488.730469 500.28125 1502.183594 508.773438 1510.285156 C 517.265625 1518.390625 530.714844 1518.074219 538.820312 1509.582031 Z M 538.820312 1509.582031 " clip-rule="nonzero"/></clipPath><clipPath id="7c623a72e7"><path d="M 0 0 L 43 0 L 43 44 L 0 44 Z M 0 0 " clip-rule="nonzero"/></clipPath><clipPath id="b4b1812791"><path d="M 51.492188 21.210938 L 22.148438 51.957031 L -8.601562 22.613281 L 20.742188 -8.132812 Z M 51.492188 21.210938 " clip-rule="nonzero"/></clipPath><clipPath id="fea0627f14"><path d="M 36.820312 36.582031 C 44.921875 28.09375 44.609375 14.640625 36.117188 6.539062 C 27.625 -1.566406 14.175781 -1.25 6.070312 7.238281 C -2.03125 15.730469 -1.71875 29.183594 6.773438 37.285156 C 15.265625 45.390625 28.714844 45.074219 36.820312 36.582031 Z M 36.820312 36.582031 " clip-rule="nonzero"/></clipPath><clipPath id="9cbaf6cf94"><rect x="0" width="43" y="0" height="44"/></clipPath><clipPath id="165bdf19a0"><path d="M 586 1297.738281 L 749.242188 1297.738281 L 749.242188 1461.097656 L 586 1461.097656 Z M 586 1297.738281 " clip-rule="nonzero"/></clipPath><clipPath id="a6670b38c3"><path d="M 624 1469 L 668 1469 L 668 1513 L 624 1513 Z M 624 1469 " clip-rule="nonzero"/></clipPath><clipPath id="8307dc7582"><path d="M 676.207031 1490.441406 L 646.863281 1521.191406 L 616.117188 1491.847656 L 645.460938 1461.097656 Z M 676.207031 1490.441406 " clip-rule="nonzero"/></clipPath><clipPath id="4e414efcb0"><path d="M 661.535156 1505.816406 C 669.640625 1497.324219 669.324219 1483.875 660.835938 1475.769531 C 652.34375 1467.667969 638.890625 1467.980469 630.789062 1476.472656 C 622.683594 1484.964844 623 1498.414062 631.492188 1506.519531 C 639.980469 1514.621094 653.433594 1514.308594 661.535156 1505.816406 Z M 661.535156 1505.816406 " clip-rule="nonzero"/></clipPath><clipPath id="5cd20f69ee"><path d="M 0 0 L 44 0 L 44 44 L 0 44 Z M 0 0 " clip-rule="nonzero"/></clipPath><clipPath id="0937f9678e"><path d="M 52.207031 21.441406 L 22.863281 52.191406 L -7.882812 22.847656 L 21.460938 -7.902344 Z M 52.207031 21.441406 " clip-rule="nonzero"/></clipPath><clipPath id="ca98b85b93"><path d="M 37.535156 36.816406 C 45.640625 28.324219 45.324219 14.875 36.835938 6.769531 C 28.34375 -1.332031 14.890625 -1.019531 6.789062 7.472656 C -1.316406 15.964844 -1 29.414062 7.492188 37.519531 C 15.980469 45.621094 29.433594 45.308594 37.535156 36.816406 Z M 37.535156 36.816406 " clip-rule="nonzero"/></clipPath><clipPath id="2abc208b6b"><rect x="0" width="44" y="0" height="44"/></clipPath><clipPath id="b12c621a40"><path d="M 722 1409 L 765 1409 L 765 1453 L 722 1453 Z M 722 1409 " clip-rule="nonzero"/></clipPath><clipPath id="73649f9f6c"><path d="M 773.402344 1430.351562 L 744.058594 1461.097656 L 713.3125 1431.753906 L 742.65625 1401.007812 Z M 773.402344 1430.351562 " clip-rule="nonzero"/></clipPath><clipPath id="44d6037afc"><path d="M 758.730469 1445.722656 C 766.835938 1437.234375 766.519531 1423.78125 758.03125 1415.679688 C 749.539062 1407.574219 736.085938 1407.890625 727.984375 1416.382812 C 719.878906 1424.871094 720.195312 1438.324219 728.6875 1446.425781 C 737.175781 1454.53125 750.628906 1454.214844 758.730469 1445.722656 Z M 758.730469 1445.722656 " clip-rule="nonzero"/></clipPath><clipPath id="29f77a740e"><path d="M 0 0 L 43 0 L 43 44 L 0 44 Z M 0 0 " clip-rule="nonzero"/></clipPath><clipPath id="69ceefb21c"><path d="M 51.402344 21.351562 L 22.058594 52.097656 L -8.6875 22.753906 L 20.65625 -7.992188 Z M 51.402344 21.351562 " clip-rule="nonzero"/></clipPath><clipPath id="ba98124c72"><path d="M 36.730469 36.722656 C 44.835938 28.234375 44.519531 14.78125 36.03125 6.679688 C 27.539062 -1.425781 14.085938 -1.109375 5.984375 7.382812 C -2.121094 15.871094 -1.804688 29.324219 6.6875 37.425781 C 15.175781 45.53125 28.628906 45.214844 36.730469 36.722656 Z M 36.730469 36.722656 " clip-rule="nonzero"/></clipPath><clipPath id="b0888d3428"><rect x="0" width="43" y="0" height="44"/></clipPath><clipPath id="a942cdd982"><path d="M 782 1306 L 825 1306 L 825 1350 L 782 1350 Z M 782 1306 " clip-rule="nonzero"/></clipPath><clipPath id="7d11b922d2"><path d="M 833.496094 1327.316406 L 804.152344 1358.066406 L 773.402344 1328.722656 L 802.746094 1297.972656 Z M 833.496094 1327.316406 " clip-rule="nonzero"/></clipPath><clipPath id="6755d7a9bd"><path d="M 818.824219 1342.691406 C 826.925781 1334.199219 826.613281 1320.75 818.121094 1312.644531 C 809.628906 1304.542969 796.179688 1304.855469 788.074219 1313.347656 C 779.972656 1321.839844 780.285156 1335.289062 788.777344 1343.394531 C 797.269531 1351.496094 810.71875 1351.183594 818.824219 1342.691406 Z M 818.824219 1342.691406 " clip-rule="nonzero"/></clipPath><clipPath id="e023a489c5"><path d="M 0 0 L 43 0 L 43 44 L 0 44 Z M 0 0 " clip-rule="nonzero"/></clipPath><clipPath id="30521fe395"><path d="M 51.496094 21.316406 L 22.152344 52.066406 L -8.597656 22.722656 L 20.746094 -8.027344 Z M 51.496094 21.316406 " clip-rule="nonzero"/></clipPath><clipPath id="112905f8ba"><path d="M 36.824219 36.691406 C 44.925781 28.199219 44.613281 14.75 36.121094 6.644531 C 27.628906 -1.457031 14.179688 -1.144531 6.074219 7.347656 C -2.027344 15.839844 -1.714844 29.289062 6.777344 37.394531 C 15.269531 45.496094 28.71875 45.183594 36.824219 36.691406 Z M 36.824219 36.691406 " clip-rule="nonzero"/></clipPath><clipPath id="42d7daac2c"><rect x="0" width="43" y="0" height="44"/></clipPath><clipPath id="17b0cc1a58"><rect x="0" width="1190" y="0" height="1684"/></clipPath></defs><g clip-path="url(#46d2495522)"><path fill="#ffffff" d="M 0 0.40625 L 1189.5 0.40625 L 1189.5 1683.09375 L 0 1683.09375 Z M 0 0.40625 " fill-opacity="1" fill-rule="nonzero"/><g transform="matrix(1, 0, 0, 1, 0, 0.000000000000081102)"><g clip-path="url(#17b0cc1a58)"><g clip-path="url(#26d816549c)"><path fill="#ffffff" d="M 0 0.40625 L 1189.199219 0.40625 L 1189.199219 1682.667969 L 0 1682.667969 Z M 0 0.40625 " fill-opacity="1" fill-rule="nonzero"/></g><g clip-path="url(#944bc3c149)"><g clip-path="url(#2c62834d46)"><g clip-path="url(#06cdccd85c)"><path fill="#000000" d="M 579.546875 976.863281 L 578.273438 904.238281 C 488.195312 905.820312 416.457031 980.121094 418.039062 1070.199219 L 490.667969 1068.921875 C 489.789062 1018.957031 529.582031 977.742188 579.546875 976.863281 Z M 579.546875 976.863281 " fill-opacity="1" fill-rule="nonzero"/></g></g></g><g clip-path="url(#c2f995b1bf)"><g clip-path="url(#18615b57fc)"><g transform="matrix(1, 0, 0, 1, 418, 1068)"><g clip-path="url(#a0b613dc52)"><g clip-path="url(#d6cddf7e66)"><g clip-path="url(#74d73d67c8)"><path fill="#000000" d="M 0.015625 2.226562 L 72.445312 0.953125 L 76.496094 231.539062 L 4.066406 232.8125 Z M 0.015625 2.226562 " fill-opacity="1" fill-rule="nonzero"/></g></g></g></g></g></g><g clip-path="url(#31af9b612a)"><g clip-path="url(#d9ca20db37)"><g clip-path="url(#e3c915482d)"><g transform="matrix(1, 0, 0, 1, 510, 1161)"><g clip-path="url(#06cc2d67ab)"><g clip-path="url(#190fbc0c94)"><g clip-path="url(#0735f61acd)"><g clip-path="url(#c192cebda1)"><path fill="#000000" d="M 21.042969 -7.832031 L 51.621094 21.6875 L 22.101562 52.265625 L -8.476562 22.742188 Z M 21.042969 -7.832031 " fill-opacity="1" fill-rule="nonzero"/></g></g></g></g></g></g></g></g><g clip-path="url(#4f2dccd554)"><g clip-path="url(#54db764885)"><g clip-path="url(#972090ab55)"><g transform="matrix(1, 0, 0, 1, 510, 1234)"><g clip-path="url(#a59ac9fd76)"><g clip-path="url(#3965cbefce)"><g clip-path="url(#99924e3d48)"><g clip-path="url(#e80e3e944c)"><path fill="#000000" d="M 21.042969 -8.097656 L 51.621094 21.425781 L 22.101562 52 L -8.476562 22.480469 Z M 21.042969 -8.097656 " fill-opacity="1" fill-rule="nonzero"/></g></g></g></g></g></g></g></g><g clip-path="url(#152c66da3d)"><g clip-path="url(#6681b29260)"><g clip-path="url(#123090dcc6)"><g transform="matrix(1, 0, 0, 1, 510, 1089)"><g clip-path="url(#87c4c467b3)"><g clip-path="url(#1022832d1e)"><g clip-path="url(#056092628a)"><g clip-path="url(#aff656d751)"><path fill="#000000" d="M 21.042969 -8.570312 L 51.621094 20.953125 L 22.101562 51.527344 L -8.476562 22.007812 Z M 21.042969 -8.570312 " fill-opacity="1" fill-rule="nonzero"/></g></g></g></g></g></g></g></g><g clip-path="url(#7bf1731dff)"><g clip-path="url(#87870ff02e)"><g clip-path="url(#bf66a5ff52)"><g transform="matrix(1, 0, 0, 1, 521, 1006)"><g clip-path="url(#3360bab874)"><g clip-path="url(#5a0e84139e)"><g clip-path="url(#ac95c5cbc7)"><g clip-path="url(#fc9fa7f80d)"><path fill="#000000" d="M 21.308594 -7.992188 L 51.886719 21.527344 L 22.367188 52.105469 L -8.210938 22.582031 Z M 21.308594 -7.992188 " fill-opacity="1" fill-rule="nonzero"/></g></g></g></g></g></g></g></g><g clip-path="url(#2ff5c4e5a4)"><g clip-path="url(#9bf3c87edb)"><g clip-path="url(#b862fcf349)"><g transform="matrix(1, 0, 0, 1, 357, 1246)"><g clip-path="url(#658b68db97)"><g clip-path="url(#7165620ff5)"><g clip-path="url(#ae818e09bb)"><g clip-path="url(#94170d9e2f)"><path fill="#000000" d="M 20.910156 -8.125 L 51.488281 21.398438 L 21.964844 51.972656 L -8.613281 22.453125 Z M 20.910156 -8.125 " fill-opacity="1" fill-rule="nonzero"/></g></g></g></g></g></g></g></g><g clip-path="url(#ed7c7b2d68)"><g clip-path="url(#813cc78a6c)"><g clip-path="url(#59289ed097)"><g transform="matrix(1, 0, 0, 1, 357, 1167)"><g clip-path="url(#0209a96670)"><g clip-path="url(#d23114e2d8)"><g clip-path="url(#da1c006e30)"><g clip-path="url(#15cfd1b2bc)"><path fill="#000000" d="M 20.910156 -7.847656 L 51.488281 21.675781 L 21.964844 52.25 L -8.613281 22.730469 Z M 20.910156 -7.847656 " fill-opacity="1" fill-rule="nonzero"/></g></g></g></g></g></g></g></g><g clip-path="url(#a51fb42e58)"><g clip-path="url(#94818d29c6)"><g clip-path="url(#ec16f9bb64)"><g transform="matrix(1, 0, 0, 1, 357, 1089)"><g clip-path="url(#2919dab6fc)"><g clip-path="url(#de8e46d5f1)"><g clip-path="url(#bebf0431f6)"><g clip-path="url(#d344e10035)"><path fill="#000000" d="M 20.910156 -8.570312 L 51.488281 20.953125 L 21.964844 51.527344 L -8.613281 22.007812 Z M 20.910156 -8.570312 " fill-opacity="1" fill-rule="nonzero"/></g></g></g></g></g></g></g></g><g clip-path="url(#5dee3bc5da)"><g clip-path="url(#995c4b6172)"><g clip-path="url(#4bde31de4f)"><g transform="matrix(1, 0, 0, 1, 372, 983)"><g clip-path="url(#4139446637)"><g clip-path="url(#e39d338249)"><g clip-path="url(#0a5bfb2689)"><g clip-path="url(#8cb01edda1)"><path fill="#000000" d="M 21.191406 -7.941406 L 51.769531 21.582031 L 22.25 52.160156 L -8.328125 22.636719 Z M 21.191406 -7.941406 " fill-opacity="1" fill-rule="nonzero"/></g></g></g></g></g></g></g></g><g clip-path="url(#e1f6c001ff)"><g clip-path="url(#4dcd8ad3e0)"><g clip-path="url(#3df9771c98)"><g transform="matrix(1, 0, 0, 1, 410, 901)"><g clip-path="url(#46e954d912)"><g clip-path="url(#880ce06aa0)"><g clip-path="url(#b21da52161)"><g clip-path="url(#f3a1bc3c6d)"><path fill="#000000" d="M 21.628906 -8.636719 L 52.203125 20.886719 L 22.683594 51.464844 L -7.894531 21.941406 Z M 21.628906 -8.636719 " fill-opacity="1" fill-rule="nonzero"/></g></g></g></g></g></g></g></g><g clip-path="url(#d25ada13a7)"><g clip-path="url(#255ae5e673)"><g clip-path="url(#e63c6cf62b)"><g transform="matrix(1, 0, 0, 1, 491, 860)"><g clip-path="url(#c224895f19)"><g clip-path="url(#cd2f527343)"><g clip-path="url(#294754ccc5)"><g clip-path="url(#ca0bcd38ab)"><path fill="#000000" d="M 21.261719 -8.265625 L 51.835938 21.253906 L 22.316406 51.832031 L -8.261719 22.3125 Z M 21.261719 -8.265625 " fill-opacity="1" fill-rule="nonzero"/></g></g></g></g></g></g></g></g><g clip-path="url(#1f896a8794)"><path fill="#000000" d="M 581.089844 904.136719 L 581.089844 976.773438 C 671.179688 976.773438 744.210938 903.746094 744.210938 813.652344 L 671.574219 813.652344 C 671.574219 863.625 631.0625 904.136719 581.089844 904.136719 Z M 581.089844 904.136719 " fill-opacity="1" fill-rule="nonzero"/></g><g clip-path="url(#69bb5e0a58)"><g transform="matrix(1, 0, 0, 1, 671, 582)"><g clip-path="url(#71a22069b1)"><g clip-path="url(#8b6685d011)"><path fill="#000000" d="M 73.238281 231.628906 L 0.796875 231.628906 L 0.796875 1.007812 L 73.238281 1.007812 Z M 73.238281 231.628906 " fill-opacity="1" fill-rule="nonzero"/></g></g></g></g><g clip-path="url(#a02d2c4f4d)"><g clip-path="url(#5c2dbec0b8)"><g clip-path="url(#6f9aa4f1d0)"><g transform="matrix(1, 0, 0, 1, 612, 679)"><g clip-path="url(#afef069800)"><g clip-path="url(#fa4a418820)"><g clip-path="url(#b1cab6bf31)"><g clip-path="url(#ac8b58c0cd)"><path fill="#000000" d="M 21.792969 51.507812 L -8.261719 21.453125 L 21.792969 -8.601562 L 51.84375 21.453125 Z M 21.792969 51.507812 " fill-opacity="1" fill-rule="nonzero"/></g></g></g></g></g></g></g></g><g clip-path="url(#fbf87661b3)"><g clip-path="url(#9440b4ecb4)"><g clip-path="url(#69ecf0ba6e)"><g transform="matrix(1, 0, 0, 1, 612, 603)"><g clip-path="url(#7530bff89b)"><g clip-path="url(#2c57a70f77)"><g clip-path="url(#a84f925478)"><g clip-path="url(#d55f8eb10b)"><path fill="#000000" d="M 21.792969 51.304688 L -8.261719 21.253906 L 21.792969 -8.800781 L 51.84375 21.253906 Z M 21.792969 51.304688 " fill-opacity="1" fill-rule="nonzero"/></g></g></g></g></g></g></g></g><g clip-path="url(#09f2563926)"><g clip-path="url(#5bfc4df320)"><g clip-path="url(#905e78b280)"><g transform="matrix(1, 0, 0, 1, 612, 755)"><g clip-path="url(#896b50efd6)"><g clip-path="url(#11e0f4826d)"><g clip-path="url(#eb6670a6be)"><g clip-path="url(#5bdd2c9c1f)"><path fill="#000000" d="M 21.792969 51.707031 L -8.261719 21.652344 L 21.792969 -8.402344 L 51.84375 21.652344 Z M 21.792969 51.707031 " fill-opacity="1" fill-rule="nonzero"/></g></g></g></g></g></g></g></g><g clip-path="url(#c8de5ee37b)"><g clip-path="url(#93cc9ae441)"><g clip-path="url(#a0d5a8afb8)"><g transform="matrix(1, 0, 0, 1, 596, 827)"><g clip-path="url(#331652a970)"><g clip-path="url(#fb7e7d9f91)"><g clip-path="url(#08881b824d)"><g clip-path="url(#9081ba4dc2)"><path fill="#000000" d="M 22.058594 52.164062 L -7.996094 22.109375 L 22.058594 -7.945312 L 52.113281 22.109375 Z M 22.058594 52.164062 " fill-opacity="1" fill-rule="nonzero"/></g></g></g></g></g></g></g></g><g clip-path="url(#71e1e22122)"><g clip-path="url(#c57a74548b)"><g clip-path="url(#b1907af1f9)"><g transform="matrix(1, 0, 0, 1, 763, 599)"><g clip-path="url(#2e10d166dc)"><g clip-path="url(#ee1a1ccc73)"><g clip-path="url(#1bc3cbe651)"><g clip-path="url(#b7d1b0f80f)"><path fill="#000000" d="M 21.25 51.5625 L -8.800781 21.507812 L 21.25 -8.546875 L 51.304688 21.507812 Z M 21.25 51.5625 " fill-opacity="1" fill-rule="nonzero"/></g></g></g></g></g></g></g></g><g clip-path="url(#89c9fc4676)"><g clip-path="url(#ce1af7071b)"><g clip-path="url(#3d75e2dbf3)"><g transform="matrix(1, 0, 0, 1, 763, 676)"><g clip-path="url(#ee961082f3)"><g clip-path="url(#03dad53d76)"><g clip-path="url(#33e1e4247f)"><g clip-path="url(#0235863b93)"><path fill="#000000" d="M 21.25 51.339844 L -8.800781 21.285156 L 21.25 -8.765625 L 51.304688 21.285156 Z M 21.25 51.339844 " fill-opacity="1" fill-rule="nonzero"/></g></g></g></g></g></g></g></g><g clip-path="url(#26ce16c726)"><g clip-path="url(#084c99d76e)"><g clip-path="url(#c9602e8ec2)"><g transform="matrix(1, 0, 0, 1, 763, 752)"><g clip-path="url(#edf955713b)"><g clip-path="url(#116e318099)"><g clip-path="url(#c439ffae58)"><g clip-path="url(#fbad40b8e6)"><path fill="#000000" d="M 21.25 52.121094 L -8.800781 22.066406 L 21.25 -7.988281 L 51.304688 22.066406 Z M 21.25 52.121094 " fill-opacity="1" fill-rule="nonzero"/></g></g></g></g></g></g></g></g><g clip-path="url(#173c1e99da)"><g clip-path="url(#cabc699bb8)"><g clip-path="url(#35f7688da2)"><g transform="matrix(1, 0, 0, 1, 752, 857)"><g clip-path="url(#bc516244fc)"><g clip-path="url(#4ddf3343f4)"><g clip-path="url(#8275ae92cf)"><g clip-path="url(#d9577872fb)"><path fill="#000000" d="M 21.394531 52.21875 L -8.65625 22.164062 L 21.394531 -7.890625 L 51.449219 22.164062 Z M 21.394531 52.21875 " fill-opacity="1" fill-rule="nonzero"/></g></g></g></g></g></g></g></g><g clip-path="url(#24fc6f81f5)"><g clip-path="url(#f32fa69617)"><g clip-path="url(#fd97d0d3ae)"><g transform="matrix(1, 0, 0, 1, 704, 933)"><g clip-path="url(#c2ef7fa86e)"><g clip-path="url(#1abe5cbf58)"><g clip-path="url(#8f8ea70327)"><g clip-path="url(#8780ef7dec)"><path fill="#000000" d="M 21.460938 52.0625 L -8.59375 22.007812 L 21.460938 -8.046875 L 51.515625 22.007812 Z M 21.460938 52.0625 " fill-opacity="1" fill-rule="nonzero"/></g></g></g></g></g></g></g></g><g clip-path="url(#171e559c85)"><g clip-path="url(#520ff88230)"><g clip-path="url(#1a667f6985)"><g transform="matrix(1, 0, 0, 1, 617, 979)"><g clip-path="url(#b0d801f276)"><g clip-path="url(#6c003622b4)"><g clip-path="url(#b32ffcfe42)"><g clip-path="url(#8c2ce98c23)"><path fill="#000000" d="M 21.378906 51.433594 L -8.675781 21.378906 L 21.378906 -8.675781 L 51.433594 21.378906 Z M 21.378906 51.433594 " fill-opacity="1" fill-rule="nonzero"/></g></g></g></g></g></g></g></g><g clip-path="url(#a4be8263a9)"><g clip-path="url(#268813d05f)"><g clip-path="url(#ce349c8452)"><path fill="#000000" d="M 493.730469 1300.089844 L 421.113281 1301.785156 C 423.21875 1391.851562 497.9375 1463.15625 588 1461.050781 L 586.304688 1388.433594 C 536.34375 1389.601562 494.898438 1350.046875 493.730469 1300.089844 Z M 493.730469 1300.089844 " fill-opacity="1" fill-rule="nonzero"/></g></g></g><g clip-path="url(#b9b52a208f)"><g clip-path="url(#030a9894d6)"><g clip-path="url(#3149b56ff3)"><g transform="matrix(1, 0, 0, 1, 521, 1310)"><g clip-path="url(#6a917c90fa)"><g clip-path="url(#beaf52dff7)"><g clip-path="url(#af3558b2f9)"><g clip-path="url(#30e1039b4d)"><path fill="#000000" d="M 51.886719 21.082031 L 22.542969 51.828125 L -8.207031 22.484375 L 21.136719 -8.261719 Z M 51.886719 21.082031 " fill-opacity="1" fill-rule="nonzero"/></g></g></g></g></g></g></g></g><g clip-path="url(#56a0c6bd94)"><g clip-path="url(#651a9c03e2)"><g clip-path="url(#b808eaeff0)"><g transform="matrix(1, 0, 0, 1, 603, 1306)"><g clip-path="url(#75fc3a4d7e)"><g clip-path="url(#ae75468a31)"><g clip-path="url(#e842846950)"><g clip-path="url(#3e18f28d66)"><path fill="#000000" d="M 51.855469 21.316406 L 22.511719 52.066406 L -8.234375 22.722656 L 21.109375 -8.027344 Z M 51.855469 21.316406 " fill-opacity="1" fill-rule="nonzero"/></g></g></g></g></g></g></g></g><g clip-path="url(#5f4386d615)"><g clip-path="url(#b42b39cadd)"><g clip-path="url(#ab3a8f6cd7)"><g transform="matrix(1, 0, 0, 1, 416, 1425)"><g clip-path="url(#b8ae7b236b)"><g clip-path="url(#f4ee9131d0)"><g clip-path="url(#aea39fb617)"><g clip-path="url(#3923974eee)"><path fill="#000000" d="M 51.871094 20.929688 L 22.527344 51.675781 L -8.222656 22.332031 L 21.121094 -8.414062 Z M 51.871094 20.929688 " fill-opacity="1" fill-rule="nonzero"/></g></g></g></g></g></g></g></g><g clip-path="url(#b84baf8278)"><g clip-path="url(#d037da8c69)"><g clip-path="url(#d2a63bd490)"><g transform="matrix(1, 0, 0, 1, 362, 1336)"><g clip-path="url(#49b57b5548)"><g clip-path="url(#de9f4b20ab)"><g clip-path="url(#5ec22035c8)"><g clip-path="url(#2660476132)"><path fill="#000000" d="M 51.605469 21.363281 L 22.265625 52.109375 L -8.484375 22.765625 L 20.859375 -7.980469 Z M 51.605469 21.363281 " fill-opacity="1" fill-rule="nonzero"/></g></g></g></g></g></g></g></g><g clip-path="url(#7ef6480007)"><path fill="#000000" d="M 581.085938 260.152344 L 581.085938 187.515625 C 490.996094 187.515625 417.964844 260.546875 417.964844 350.636719 L 490.605469 350.636719 C 490.605469 300.664062 531.117188 260.152344 581.085938 260.152344 Z M 581.085938 260.152344 " fill-opacity="1" fill-rule="nonzero"/></g><g clip-path="url(#3a76e14325)"><path fill="#000000" d="M 671.574219 350.636719 L 744.210938 350.636719 C 744.210938 260.546875 671.179688 187.515625 581.089844 187.515625 L 581.089844 260.152344 C 631.0625 260.152344 671.574219 300.664062 671.574219 350.636719 Z M 671.574219 350.636719 " fill-opacity="1" fill-rule="nonzero"/></g><g clip-path="url(#54fc5b47a0)"><g transform="matrix(1, 0, 0, 1, 671, 350)"><g clip-path="url(#c7a4a85617)"><g clip-path="url(#b85ce278de)"><path fill="#000000" d="M 0.800781 0.664062 L 73.238281 0.664062 L 73.238281 231.285156 L 0.800781 231.285156 Z M 0.800781 0.664062 " fill-opacity="1" fill-rule="nonzero"/></g></g></g></g><g clip-path="url(#5904474df5)"><g clip-path="url(#17dcc980e4)"><g clip-path="url(#d30ad98608)"><g transform="matrix(1, 0, 0, 1, 612, 526)"><g clip-path="url(#535dd02f86)"><g clip-path="url(#23664027a5)"><g clip-path="url(#31aba71f5b)"><g clip-path="url(#233d9522ff)"><path fill="#000000" d="M -8.261719 22.054688 L 21.792969 -8 L 51.847656 22.054688 L 21.792969 52.105469 Z M -8.261719 22.054688 " fill-opacity="1" fill-rule="nonzero"/></g></g></g></g></g></g></g></g><g clip-path="url(#da73fb8931)"><g clip-path="url(#9d0a184714)"><g clip-path="url(#ce09fbb2e9)"><g transform="matrix(1, 0, 0, 1, 612, 450)"><g clip-path="url(#2609556ccf)"><g clip-path="url(#814ae3c63b)"><g clip-path="url(#45740ad094)"><g clip-path="url(#917f636fa4)"><path fill="#000000" d="M -8.261719 21.851562 L 21.792969 -8.199219 L 51.847656 21.851562 L 21.792969 51.90625 Z M -8.261719 21.851562 " fill-opacity="1" fill-rule="nonzero"/></g></g></g></g></g></g></g></g><g clip-path="url(#cac7719ae1)"><g clip-path="url(#46520e63ec)"><g clip-path="url(#a034a5eff4)"><g transform="matrix(1, 0, 0, 1, 612, 374)"><g clip-path="url(#23b3d5e1bc)"><g clip-path="url(#85fe864486)"><g clip-path="url(#6eb8740c9d)"><g clip-path="url(#9ef87ab8e2)"><path fill="#000000" d="M -8.261719 21.652344 L 21.792969 -8.402344 L 51.847656 21.652344 L 21.792969 51.707031 Z M -8.261719 21.652344 " fill-opacity="1" fill-rule="nonzero"/></g></g></g></g></g></g></g></g><g clip-path="url(#ad7650708f)"><g clip-path="url(#606a02266d)"><g clip-path="url(#a052f9ecdf)"><g transform="matrix(1, 0, 0, 1, 603, 288)"><g clip-path="url(#8407574352)"><g clip-path="url(#081e070486)"><g clip-path="url(#888252e03f)"><g clip-path="url(#4a68e6f02c)"><path fill="#000000" d="M -8.25 21.320312 L 21.804688 -8.734375 L 51.859375 21.320312 L 21.804688 51.371094 Z M -8.25 21.320312 " fill-opacity="1" fill-rule="nonzero"/></g></g></g></g></g></g></g></g><g clip-path="url(#1d2060e48e)"><g clip-path="url(#5e5fa93d9c)"><g clip-path="url(#041fd1e31b)"><g transform="matrix(1, 0, 0, 1, 513, 292)"><g clip-path="url(#00d73de142)"><g clip-path="url(#7420ce7fef)"><g clip-path="url(#ee2ff81fff)"><g clip-path="url(#e3c9f450f3)"><path fill="#000000" d="M -8.441406 21.34375 L 21.613281 -8.707031 L 51.667969 21.34375 L 21.613281 51.398438 Z M -8.441406 21.34375 " fill-opacity="1" fill-rule="nonzero"/></g></g></g></g></g></g></g></g><g clip-path="url(#cb84f388aa)"><g clip-path="url(#cbe4b2c75d)"><g clip-path="url(#56bd179e8a)"><g transform="matrix(1, 0, 0, 1, 374, 266)"><g clip-path="url(#8116c7fb37)"><g clip-path="url(#31fb5819ca)"><g clip-path="url(#27dd961c36)"><g clip-path="url(#4ea9025475)"><path fill="#000000" d="M -8.058594 21.285156 L 21.992188 -8.769531 L 52.046875 21.285156 L 21.992188 51.339844 Z M -8.058594 21.285156 " fill-opacity="1" fill-rule="nonzero"/></g></g></g></g></g></g></g></g><g clip-path="url(#0b58f853f5)"><g clip-path="url(#0910008f78)"><g clip-path="url(#5c3d7a8bae)"><g transform="matrix(1, 0, 0, 1, 418, 175)"><g clip-path="url(#843b768210)"><g clip-path="url(#76a26b618c)"><g clip-path="url(#c6c7db0085)"><g clip-path="url(#fc68e80150)"><path fill="#000000" d="M -8.796875 21.449219 L 21.257812 -8.605469 L 51.3125 21.449219 L 21.257812 51.503906 Z M -8.796875 21.449219 " fill-opacity="1" fill-rule="nonzero"/></g></g></g></g></g></g></g></g><g clip-path="url(#132190984a)"><g clip-path="url(#2be6eecaac)"><g clip-path="url(#99962ba6b0)"><g transform="matrix(1, 0, 0, 1, 513, 138)"><g clip-path="url(#c22188095e)"><g clip-path="url(#02afa34b9e)"><g clip-path="url(#2dd072fc60)"><g clip-path="url(#253c57f0b2)"><path fill="#000000" d="M -8.441406 21.824219 L 21.613281 -8.230469 L 51.667969 21.824219 L 21.613281 51.878906 Z M -8.441406 21.824219 " fill-opacity="1" fill-rule="nonzero"/></g></g></g></g></g></g></g></g><g clip-path="url(#a8feca2b4f)"><g clip-path="url(#86dc297e54)"><g clip-path="url(#ec0f8bfaab)"><g transform="matrix(1, 0, 0, 1, 603, 136)"><g clip-path="url(#886c2368bd)"><g clip-path="url(#f886453d73)"><g clip-path="url(#31452dd48d)"><g clip-path="url(#04515f425c)"><path fill="#000000" d="M -8.234375 21.460938 L 21.820312 -8.59375 L 51.875 21.460938 L 21.820312 51.515625 Z M -8.234375 21.460938 " fill-opacity="1" fill-rule="nonzero"/></g></g></g></g></g></g></g></g><g clip-path="url(#d95f32aefd)"><g clip-path="url(#997536dfc5)"><g clip-path="url(#ffb6d6abf7)"><g transform="matrix(1, 0, 0, 1, 707, 175)"><g clip-path="url(#9054f5690b)"><g clip-path="url(#9012a1890c)"><g clip-path="url(#a20d29cd5a)"><g clip-path="url(#04bfd173f0)"><path fill="#000000" d="M -8.78125 21.449219 L 21.273438 -8.605469 L 51.328125 21.449219 L 21.273438 51.503906 Z M -8.78125 21.449219 " fill-opacity="1" fill-rule="nonzero"/></g></g></g></g></g></g></g></g><g clip-path="url(#4c5df24431)"><g clip-path="url(#c8d25963fd)"><g clip-path="url(#5468173db6)"><g transform="matrix(1, 0, 0, 1, 758, 258)"><g clip-path="url(#c51c5b62b6)"><g clip-path="url(#9b74755b07)"><g clip-path="url(#1370b07181)"><g clip-path="url(#e5b6f3b9cc)"><path fill="#000000" d="M -8.753906 21.265625 L 21.296875 -8.789062 L 51.351562 21.265625 L 21.296875 51.320312 Z M -8.753906 21.265625 " fill-opacity="1" fill-rule="nonzero"/></g></g></g></g></g></g></g></g><g clip-path="url(#015d5c9e76)"><g clip-path="url(#aa6ea54369)"><g clip-path="url(#d0193939bb)"><g transform="matrix(1, 0, 0, 1, 763, 368)"><g clip-path="url(#16b10bf0a8)"><g clip-path="url(#fcb1ff24f6)"><g clip-path="url(#8524ff686e)"><g clip-path="url(#ddd30c602d)"><path fill="#000000" d="M -8.800781 22.171875 L 21.253906 -7.882812 L 51.304688 22.171875 L 21.253906 52.226562 Z M -8.800781 22.171875 " fill-opacity="1" fill-rule="nonzero"/></g></g></g></g></g></g></g></g><g clip-path="url(#3dcbb1d9fb)"><g clip-path="url(#67a5006b8b)"><g clip-path="url(#bca3978bbc)"><g transform="matrix(1, 0, 0, 1, 763, 445)"><g clip-path="url(#ab632f157a)"><g clip-path="url(#cf16108e02)"><g clip-path="url(#1032a3c935)"><g clip-path="url(#8fda4c31a4)"><path fill="#000000" d="M -8.800781 21.949219 L 21.253906 -8.101562 L 51.304688 21.949219 L 21.253906 52.003906 Z M -8.800781 21.949219 " fill-opacity="1" fill-rule="nonzero"/></g></g></g></g></g></g></g></g><g clip-path="url(#2c50f2a2c4)"><g clip-path="url(#8b49873a55)"><g clip-path="url(#4ac861099e)"><g transform="matrix(1, 0, 0, 1, 763, 522)"><g clip-path="url(#d1f6bdd4f7)"><g clip-path="url(#b67229baea)"><g clip-path="url(#1e9f8373a2)"><g clip-path="url(#dfeb52e78d)"><path fill="#000000" d="M -8.800781 21.730469 L 21.253906 -8.324219 L 51.304688 21.730469 L 21.253906 51.785156 Z M -8.800781 21.730469 " fill-opacity="1" fill-rule="nonzero"/></g></g></g></g></g></g></g></g><g clip-path="url(#a7011d94e3)"><g transform="matrix(1, 0, 0, 1, 417, 353)"><g clip-path="url(#45498aba00)"><g clip-path="url(#a41638f1bf)"><path fill="#000000" d="M 0.691406 0.496094 L 73.128906 0.496094 L 73.128906 231.117188 L 0.691406 231.117188 Z M 0.691406 0.496094 " fill-opacity="1" fill-rule="nonzero"/></g></g></g></g><g clip-path="url(#e3e93a5635)"><g clip-path="url(#11ef399cf4)"><g clip-path="url(#6e6eb04421)"><g transform="matrix(1, 0, 0, 1, 360, 522)"><g clip-path="url(#09537582a1)"><g clip-path="url(#8f6f555a17)"><g clip-path="url(#bda40f9024)"><g clip-path="url(#b6dd41b6cc)"><path fill="#000000" d="M -8.292969 21.980469 L 21.761719 -8.074219 L 51.816406 21.980469 L 21.761719 52.035156 Z M -8.292969 21.980469 " fill-opacity="1" fill-rule="nonzero"/></g></g></g></g></g></g></g></g><g clip-path="url(#b3bb806eaa)"><g clip-path="url(#4574f46bc7)"><g clip-path="url(#ef88ec4f56)"><g transform="matrix(1, 0, 0, 1, 360, 445)"><g clip-path="url(#cc40bdc0b1)"><g clip-path="url(#c7294985d7)"><g clip-path="url(#2bf1c95140)"><g clip-path="url(#3cc0a22741)"><path fill="#000000" d="M -8.292969 22.078125 L 21.761719 -7.976562 L 51.816406 22.078125 L 21.761719 52.128906 Z M -8.292969 22.078125 " fill-opacity="1" fill-rule="nonzero"/></g></g></g></g></g></g></g></g><g clip-path="url(#7d97a8e429)"><g clip-path="url(#fe1837fd39)"><g clip-path="url(#2f3bffdfba)"><g transform="matrix(1, 0, 0, 1, 360, 368)"><g clip-path="url(#659a3a9c02)"><g clip-path="url(#4babb61ac8)"><g clip-path="url(#dfba4eb177)"><g clip-path="url(#fd3c0f7cd9)"><path fill="#000000" d="M -8.292969 22.171875 L 21.761719 -7.882812 L 51.816406 22.171875 L 21.761719 52.226562 Z M -8.292969 22.171875 " fill-opacity="1" fill-rule="nonzero"/></g></g></g></g></g></g></g></g><g clip-path="url(#c21fbfeb37)"><g clip-path="url(#dc204f2f23)"><g clip-path="url(#c6e53deecb)"><g transform="matrix(1, 0, 0, 1, 508, 371)"><g clip-path="url(#5b8034e08f)"><g clip-path="url(#c629141ea2)"><g clip-path="url(#7ad8300e78)"><g clip-path="url(#ba090d9458)"><path fill="#000000" d="M -7.910156 22.003906 L 22.144531 -8.050781 L 52.199219 22.003906 L 22.144531 52.058594 Z M -7.910156 22.003906 " fill-opacity="1" fill-rule="nonzero"/></g></g></g></g></g></g></g></g><g clip-path="url(#82733b14b0)"><g clip-path="url(#8aeed29688)"><g clip-path="url(#2a05b51f4d)"><g transform="matrix(1, 0, 0, 1, 508, 443)"><g clip-path="url(#6c0c1311cd)"><g clip-path="url(#8a8f5adcce)"><g clip-path="url(#aa056d2b48)"><g clip-path="url(#74240e5a81)"><path fill="#000000" d="M -7.910156 21.679688 L 22.144531 -8.375 L 52.199219 21.679688 L 22.144531 51.734375 Z M -7.910156 21.679688 " fill-opacity="1" fill-rule="nonzero"/></g></g></g></g></g></g></g></g><g clip-path="url(#fc36612262)"><g clip-path="url(#86c7b40b93)"><g clip-path="url(#d2d5dea70a)"><g transform="matrix(1, 0, 0, 1, 508, 515)"><g clip-path="url(#1dc8fdc64c)"><g clip-path="url(#6fe13dfde5)"><g clip-path="url(#c369927fd9)"><g clip-path="url(#c002ca39d4)"><path fill="#000000" d="M -7.910156 21.355469 L 22.144531 -8.699219 L 52.199219 21.355469 L 22.144531 51.410156 Z M -7.910156 21.355469 " fill-opacity="1" fill-rule="nonzero"/></g></g></g></g></g></g></g></g><g clip-path="url(#1960b374f5)"><g clip-path="url(#1a984a59d5)"><g clip-path="url(#5d7dac66e6)"><g transform="matrix(1, 0, 0, 1, 502, 1473)"><g clip-path="url(#9cbaf6cf94)"><g clip-path="url(#7c623a72e7)"><g clip-path="url(#b4b1812791)"><g clip-path="url(#fea0627f14)"><path fill="#000000" d="M 51.492188 21.210938 L 22.148438 51.957031 L -8.601562 22.613281 L 20.742188 -8.132812 Z M 51.492188 21.210938 " fill-opacity="1" fill-rule="nonzero"/></g></g></g></g></g></g></g></g><g clip-path="url(#165bdf19a0)"><path fill="#000000" d="M 586.121094 1388.457031 L 586.121094 1461.097656 C 676.210938 1461.097656 749.242188 1388.066406 749.242188 1297.976562 L 676.601562 1297.976562 C 676.601562 1347.949219 636.089844 1388.457031 586.121094 1388.457031 Z M 586.121094 1388.457031 " fill-opacity="1" fill-rule="nonzero"/></g><g clip-path="url(#a6670b38c3)"><g clip-path="url(#8307dc7582)"><g clip-path="url(#4e414efcb0)"><g transform="matrix(1, 0, 0, 1, 624, 1469)"><g clip-path="url(#2abc208b6b)"><g clip-path="url(#5cd20f69ee)"><g clip-path="url(#0937f9678e)"><g clip-path="url(#ca98b85b93)"><path fill="#000000" d="M 52.207031 21.441406 L 22.863281 52.191406 L -7.882812 22.847656 L 21.460938 -7.902344 Z M 52.207031 21.441406 " fill-opacity="1" fill-rule="nonzero"/></g></g></g></g></g></g></g></g><g clip-path="url(#b12c621a40)"><g clip-path="url(#73649f9f6c)"><g clip-path="url(#44d6037afc)"><g transform="matrix(1, 0, 0, 1, 722, 1409)"><g clip-path="url(#b0888d3428)"><g clip-path="url(#29f77a740e)"><g clip-path="url(#69ceefb21c)"><g clip-path="url(#ba98124c72)"><path fill="#000000" d="M 51.402344 21.351562 L 22.058594 52.097656 L -8.6875 22.753906 L 20.65625 -7.992188 Z M 51.402344 21.351562 " fill-opacity="1" fill-rule="nonzero"/></g></g></g></g></g></g></g></g><g clip-path="url(#a942cdd982)"><g clip-path="url(#7d11b922d2)"><g clip-path="url(#6755d7a9bd)"><g transform="matrix(1, 0, 0, 1, 782, 1306)"><g clip-path="url(#42d7daac2c)"><g clip-path="url(#e023a489c5)"><g clip-path="url(#30521fe395)"><g clip-path="url(#112905f8ba)"><path fill="#000000" d="M 51.496094 21.316406 L 22.152344 52.066406 L -8.597656 22.722656 L 20.746094 -8.027344 Z M 51.496094 21.316406 " fill-opacity="1" fill-rule="nonzero"/></g></g></g></g></g></g></g></g></g></g></g></svg>