<?xml version="1.0" encoding="UTF-8" standalone="no"?>
<svg
   width="1587"
   zoomAndPan="magnify"
   viewBox="0 0 1190.25 1683.749949"
   height="2245"
   preserveAspectRatio="xMidYMid meet"
   version="1.0"
   id="svg126"
   sodipodi:docname="tables.svg"
   inkscape:version="1.4.3 (0d15f75, 2025-12-25)"
   xmlns:inkscape="http://www.inkscape.org/namespaces/inkscape"
   xmlns:sodipodi="http://sodipodi.sourceforge.net/DTD/sodipodi-0.dtd"
   xmlns="http://www.w3.org/2000/svg"
   xmlns:svg="http://www.w3.org/2000/svg">
  <sodipodi:namedview
     id="namedview126"
     pagecolor="#ffffff"
     bordercolor="#000000"
     borderopacity="0.25"
     inkscape:showpageshadow="2"
     inkscape:pageopacity="0.0"
     inkscape:pagecheckerboard="0"
     inkscape:deskcolor="#d1d1d1"
     showgrid="false"
     inkscape:zoom="0.66904232"
     inkscape:cx="711.46471"
     inkscape:cy="876.62617"
     inkscape:window-width="1920"
     inkscape:window-height="991"
     inkscape:window-x="-9"
     inkscape:window-y="-9"
     inkscape:window-maximized="1"
     inkscape:current-layer="g125" />
  <defs
     id="defs59">
    <clipPath
       id="bea2a49e25">
      <path
         d="M 443 63 L 659 63 L 659 157 L 443 157 Z M 443 63 "
         clip-rule="nonzero"
         id="path1" />
    </clipPath>
    <clipPath
       id="0c47b7eb86">
      <path
         d="M 550.667969 0.527344 L 658.230469 108.089844 L 550.667969 215.652344 L 443.105469 108.089844 Z M 550.667969 0.527344 "
         clip-rule="nonzero"
         id="path2" />
    </clipPath>
    <clipPath
       id="a8cc28090d">
      <path
         d="M 550.667969 0.527344 L 658.230469 108.089844 L 550.667969 215.652344 L 443.105469 108.089844 Z M 550.667969 0.527344 "
         clip-rule="nonzero"
         id="path3" />
    </clipPath>
    <clipPath
       id="7a399c3c6b">
      <path
         d="M 611 107 L 827 107 L 827 201 L 611 201 Z M 611 107 "
         clip-rule="nonzero"
         id="path4" />
    </clipPath>
    <clipPath
       id="2b0c4b2d3a">
      <path
         d="M 719.148438 263.183594 L 611.589844 155.621094 L 719.148438 48.058594 L 826.710938 155.621094 Z M 719.148438 263.183594 "
         clip-rule="nonzero"
         id="path5" />
    </clipPath>
    <clipPath
       id="1e978430fc">
      <path
         d="M 719.148438 263.183594 L 611.589844 155.621094 L 719.148438 48.058594 L 826.710938 155.621094 Z M 719.148438 263.183594 "
         clip-rule="nonzero"
         id="path6" />
    </clipPath>
    <clipPath
       id="b903ff6f72">
      <path
         d="M 276 107 L 492 107 L 492 201 L 276 201 Z M 276 107 "
         clip-rule="nonzero"
         id="path7" />
    </clipPath>
    <clipPath
       id="4c57588e41">
      <path
         d="M 383.992188 263.183594 L 276.429688 155.621094 L 383.992188 48.058594 L 491.550781 155.621094 Z M 383.992188 263.183594 "
         clip-rule="nonzero"
         id="path8" />
    </clipPath>
    <clipPath
       id="10f5887c92">
      <path
         d="M 383.992188 263.183594 L 276.429688 155.621094 L 383.992188 48.058594 L 491.550781 155.621094 Z M 383.992188 263.183594 "
         clip-rule="nonzero"
         id="path9" />
    </clipPath>
    <clipPath
       id="60e2d9fbc6">
      <path
         d="M 108 63 L 324 63 L 324 157 L 108 157 Z M 108 63 "
         clip-rule="nonzero"
         id="path10" />
    </clipPath>
    <clipPath
       id="386c7fe0ea">
      <path
         d="M 216.109375 0.527344 L 323.671875 108.089844 L 216.109375 215.652344 L 108.546875 108.089844 Z M 216.109375 0.527344 "
         clip-rule="nonzero"
         id="path11" />
    </clipPath>
    <clipPath
       id="118fcd7e63">
      <path
         d="M 216.109375 0.527344 L 323.671875 108.089844 L 216.109375 215.652344 L 108.546875 108.089844 Z M 216.109375 0.527344 "
         clip-rule="nonzero"
         id="path12" />
    </clipPath>
    <clipPath
       id="e65b887c14">
      <path
         d="M 777 63 L 993 63 L 993 157 L 777 157 Z M 777 63 "
         clip-rule="nonzero"
         id="path13" />
    </clipPath>
    <clipPath
       id="6d793d16e4">
      <path
         d="M 885.242188 0.527344 L 992.804688 108.089844 L 885.242188 215.652344 L 777.679688 108.089844 Z M 885.242188 0.527344 "
         clip-rule="nonzero"
         id="path14" />
    </clipPath>
    <clipPath
       id="b94bf2deed">
      <path
         d="M 885.242188 0.527344 L 992.804688 108.089844 L 885.242188 215.652344 L 777.679688 108.089844 Z M 885.242188 0.527344 "
         clip-rule="nonzero"
         id="path15" />
    </clipPath>
    <clipPath
       id="9eed9ac781">
      <path
         d="M 944 108 L 1038 108 L 1038 324 L 944 324 Z M 944 108 "
         clip-rule="nonzero"
         id="path16" />
    </clipPath>
    <clipPath
       id="9152a586e1">
      <path
         d="M 1100.667969 215.953125 L 993.105469 323.515625 L 885.542969 215.953125 L 993.105469 108.390625 Z M 1100.667969 215.953125 "
         clip-rule="nonzero"
         id="path17" />
    </clipPath>
    <clipPath
       id="7084b3e8bc">
      <path
         d="M 1100.667969 215.953125 L 993.105469 323.515625 L 885.542969 215.953125 L 993.105469 108.390625 Z M 1100.667969 215.953125 "
         clip-rule="nonzero"
         id="path18" />
    </clipPath>
    <clipPath
       id="dded3de882">
      <path
         d="M 63 108 L 157 108 L 157 324 L 63 324 Z M 63 108 "
         clip-rule="nonzero"
         id="path19" />
    </clipPath>
    <clipPath
       id="4f08ad5eb0">
      <path
         d="M 0.683594 215.953125 L 108.246094 108.390625 L 215.808594 215.953125 L 108.246094 323.515625 Z M 0.683594 215.953125 "
         clip-rule="nonzero"
         id="path20" />
    </clipPath>
    <clipPath
       id="5ebfb0b21a">
      <path
         d="M 0.683594 215.953125 L 108.246094 108.390625 L 215.808594 215.953125 L 108.246094 323.515625 Z M 0.683594 215.953125 "
         clip-rule="nonzero"
         id="path21" />
    </clipPath>
    <clipPath
       id="a79b4db542">
      <path
         d="M 108 275 L 309 275 L 309 477 L 108 477 Z M 108 275 "
         clip-rule="nonzero"
         id="path22" />
    </clipPath>
    <clipPath
       id="f31d5af409">
      <path
         d="M 108.398438 323.695312 L 156.230469 275.863281 L 308.5625 428.195312 L 260.726562 476.027344 Z M 108.398438 323.695312 "
         clip-rule="nonzero"
         id="path23" />
    </clipPath>
    <clipPath
       id="905dae9086">
      <path
         d="M 0.289062 0.628906 L 200.5625 0.628906 L 200.5625 201 L 0.289062 201 Z M 0.289062 0.628906 "
         clip-rule="nonzero"
         id="path24" />
    </clipPath>
    <clipPath
       id="f2bcb5bcdb">
      <path
         d="M 0.398438 48.695312 L 48.230469 0.863281 L 200.5625 153.195312 L 152.726562 201.027344 Z M 0.398438 48.695312 "
         clip-rule="nonzero"
         id="path25" />
    </clipPath>
    <clipPath
       id="b01754e5bd">
      <rect
         x="0"
         width="201"
         y="0"
         height="202"
         id="rect25" />
    </clipPath>
    <clipPath
       id="ba70d0f8e8">
      <path
         d="M 792 275 L 993 275 L 993 477 L 792 477 Z M 792 275 "
         clip-rule="nonzero"
         id="path26" />
    </clipPath>
    <clipPath
       id="cfb8074eae">
      <path
         d="M 945.121094 275.867188 L 992.957031 323.703125 L 840.625 476.03125 L 792.789062 428.199219 Z M 945.121094 275.867188 "
         clip-rule="nonzero"
         id="path27" />
    </clipPath>
    <clipPath
       id="743884fc31">
      <path
         d="M 0.578125 0.628906 L 201 0.628906 L 201 201 L 0.578125 201 Z M 0.578125 0.628906 "
         clip-rule="nonzero"
         id="path28" />
    </clipPath>
    <clipPath
       id="d2d0aa55f1">
      <path
         d="M 153.121094 0.867188 L 200.957031 48.703125 L 48.625 201.03125 L 0.789062 153.199219 Z M 153.121094 0.867188 "
         clip-rule="nonzero"
         id="path29" />
    </clipPath>
    <clipPath
       id="1eb45ed664">
      <rect
         x="0"
         width="201"
         y="0"
         height="202"
         id="rect29" />
    </clipPath>
    <clipPath
       id="aa64679e33">
      <path
         d="M 451 904 L 668 904 L 668 997 L 451 997 Z M 451 904 "
         clip-rule="nonzero"
         id="path30" />
    </clipPath>
    <clipPath
       id="95eabb4892">
      <path
         d="M 559.496094 1060.050781 L 451.933594 952.488281 L 559.496094 844.925781 L 667.058594 952.488281 Z M 559.496094 1060.050781 "
         clip-rule="nonzero"
         id="path31" />
    </clipPath>
    <clipPath
       id="1bce5d63ec">
      <path
         d="M 559.496094 1060.050781 L 451.933594 952.488281 L 559.496094 844.925781 L 667.058594 952.488281 Z M 559.496094 1060.050781 "
         clip-rule="nonzero"
         id="path32" />
    </clipPath>
    <clipPath
       id="9b17541f18">
      <path
         d="M 283 860 L 499 860 L 499 954 L 283 954 Z M 283 860 "
         clip-rule="nonzero"
         id="path33" />
    </clipPath>
    <clipPath
       id="dafad07e6b">
      <path
         d="M 391.011719 797.394531 L 498.574219 904.957031 L 391.011719 1012.519531 L 283.453125 904.957031 Z M 391.011719 797.394531 "
         clip-rule="nonzero"
         id="path34" />
    </clipPath>
    <clipPath
       id="d165da6499">
      <path
         d="M 391.011719 797.394531 L 498.574219 904.957031 L 391.011719 1012.519531 L 283.453125 904.957031 Z M 391.011719 797.394531 "
         clip-rule="nonzero"
         id="path35" />
    </clipPath>
    <clipPath
       id="2740937368">
      <path
         d="M 618 860 L 834 860 L 834 954 L 618 954 Z M 618 860 "
         clip-rule="nonzero"
         id="path36" />
    </clipPath>
    <clipPath
       id="5e6ddd2892">
      <path
         d="M 726.171875 797.394531 L 833.734375 904.957031 L 726.171875 1012.519531 L 618.609375 904.957031 Z M 726.171875 797.394531 "
         clip-rule="nonzero"
         id="path37" />
    </clipPath>
    <clipPath
       id="17bb4e9d15">
      <path
         d="M 726.171875 797.394531 L 833.734375 904.957031 L 726.171875 1012.519531 L 618.609375 904.957031 Z M 726.171875 797.394531 "
         clip-rule="nonzero"
         id="path38" />
    </clipPath>
    <clipPath
       id="21130dbe6b">
      <path
         d="M 786 904 L 1002 904 L 1002 997 L 786 997 Z M 786 904 "
         clip-rule="nonzero"
         id="path39" />
    </clipPath>
    <clipPath
       id="b9dc49d027">
      <path
         d="M 894.054688 1060.050781 L 786.492188 952.488281 L 894.054688 844.925781 L 1001.617188 952.488281 Z M 894.054688 1060.050781 "
         clip-rule="nonzero"
         id="path40" />
    </clipPath>
    <clipPath
       id="624cc66e26">
      <path
         d="M 894.054688 1060.050781 L 786.492188 952.488281 L 894.054688 844.925781 L 1001.617188 952.488281 Z M 894.054688 1060.050781 "
         clip-rule="nonzero"
         id="path41" />
    </clipPath>
    <clipPath
       id="8a52be41e7">
      <path
         d="M 117 904 L 333 904 L 333 997 L 117 997 Z M 117 904 "
         clip-rule="nonzero"
         id="path42" />
    </clipPath>
    <clipPath
       id="1f69f5603a">
      <path
         d="M 224.921875 1060.050781 L 117.359375 952.488281 L 224.921875 844.925781 L 332.484375 952.488281 Z M 224.921875 1060.050781 "
         clip-rule="nonzero"
         id="path43" />
    </clipPath>
    <clipPath
       id="4618351dad">
      <path
         d="M 224.921875 1060.050781 L 117.359375 952.488281 L 224.921875 844.925781 L 332.484375 952.488281 Z M 224.921875 1060.050781 "
         clip-rule="nonzero"
         id="path44" />
    </clipPath>
    <clipPath
       id="4525474ae4">
      <path
         d="M 72 737 L 166 737 L 166 953 L 72 953 Z M 72 737 "
         clip-rule="nonzero"
         id="path45" />
    </clipPath>
    <clipPath
       id="9ead30c8cf">
      <path
         d="M 9.496094 844.625 L 117.058594 737.0625 L 224.621094 844.625 L 117.058594 952.1875 Z M 9.496094 844.625 "
         clip-rule="nonzero"
         id="path46" />
    </clipPath>
    <clipPath
       id="9b7b7b2e83">
      <path
         d="M 9.496094 844.625 L 117.058594 737.0625 L 224.621094 844.625 L 117.058594 952.1875 Z M 9.496094 844.625 "
         clip-rule="nonzero"
         id="path47" />
    </clipPath>
    <clipPath
       id="e49a92380b">
      <path
         d="M 953 737 L 1047 737 L 1047 953 L 953 953 Z M 953 737 "
         clip-rule="nonzero"
         id="path48" />
    </clipPath>
    <clipPath
       id="593e19ac79">
      <path
         d="M 1109.480469 844.625 L 1001.917969 952.1875 L 894.355469 844.625 L 1001.917969 737.0625 Z M 1109.480469 844.625 "
         clip-rule="nonzero"
         id="path49" />
    </clipPath>
    <clipPath
       id="d39396d18b">
      <path
         d="M 1109.480469 844.625 L 1001.917969 952.1875 L 894.355469 844.625 L 1001.917969 737.0625 Z M 1109.480469 844.625 "
         clip-rule="nonzero"
         id="path50" />
    </clipPath>
    <clipPath
       id="aebf96780b">
      <path
         d="M 801 584 L 1002 584 L 1002 785 L 801 785 Z M 801 584 "
         clip-rule="nonzero"
         id="path51" />
    </clipPath>
    <clipPath
       id="c152a8f59b">
      <path
         d="M 1001.761719 736.882812 L 953.929688 784.714844 L 801.597656 632.382812 L 849.433594 584.550781 Z M 1001.761719 736.882812 "
         clip-rule="nonzero"
         id="path52" />
    </clipPath>
    <clipPath
       id="3fdccac047">
      <path
         d="M 0.453125 0.316406 L 200.964844 0.316406 L 200.964844 200.828125 L 0.453125 200.828125 Z M 0.453125 0.316406 "
         clip-rule="nonzero"
         id="path53" />
    </clipPath>
    <clipPath
       id="83855f5b7a">
      <path
         d="M 200.761719 152.882812 L 152.929688 200.714844 L 0.597656 48.382812 L 48.433594 0.550781 Z M 200.761719 152.882812 "
         clip-rule="nonzero"
         id="path54" />
    </clipPath>
    <clipPath
       id="b3bb8817ac">
      <rect
         x="0"
         width="201"
         y="0"
         height="201"
         id="rect54" />
    </clipPath>
    <clipPath
       id="08d0106373">
      <path
         d="M 117 584 L 318 584 L 318 785 L 117 785 Z M 117 584 "
         clip-rule="nonzero"
         id="path55" />
    </clipPath>
    <clipPath
       id="cf818e1757">
      <path
         d="M 165.039062 784.710938 L 117.207031 736.875 L 269.535156 584.542969 L 317.371094 632.378906 Z M 165.039062 784.710938 "
         clip-rule="nonzero"
         id="path56" />
    </clipPath>
    <clipPath
       id="142ddeeba1">
      <path
         d="M 0.164062 0.316406 L 200.4375 0.316406 L 200.4375 200.828125 L 0.164062 200.828125 Z M 0.164062 0.316406 "
         clip-rule="nonzero"
         id="path57" />
    </clipPath>
    <clipPath
       id="30abdf8675">
      <path
         d="M 48.039062 200.710938 L 0.207031 152.875 L 152.535156 0.542969 L 200.371094 48.378906 Z M 48.039062 200.710938 "
         clip-rule="nonzero"
         id="path58" />
    </clipPath>
    <clipPath
       id="9e76343a83">
      <rect
         x="0"
         width="201"
         y="0"
         height="201"
         id="rect58" />
    </clipPath>
    <clipPath
       id="f196580dbb">
      <rect
         x="0"
         width="1110"
         y="0"
         height="1061"
         id="rect59" />
    </clipPath>
  </defs>
  <g
     transform="translate(66.5,257)"
     id="g126">
    <g
       clip-path="url(#f196580dbb)"
       id="g125"
       transform="translate(-26.904128,13.452063)">
      <g
         clip-path="url(#bea2a49e25)"
         id="g61">
        <g
           clip-path="url(#0c47b7eb86)"
           id="g60">
          <g
             clip-path="url(#a8cc28090d)"
             id="g59">
            <path
               fill="#000000"
               d="m 610.41797,156.20312 47.96094,-47.96484 C 598.89062,48.75 502.44531,48.75 442.95703,108.23828 l 47.96484,47.96484 c 32.9961,-32.99999 86.4961,-32.99999 119.4961,0 z m 0,0"
               fill-opacity="1"
               fill-rule="nonzero"
               id="path59" />
          </g>
        </g>
      </g>
      <g
         clip-path="url(#7a399c3c6b)"
         id="g64">
        <g
           clip-path="url(#2b0c4b2d3a)"
           id="g63">
          <g
             clip-path="url(#1e978430fc)"
             id="g62">
            <path
               fill="#000000"
               d="m 657.16033,108.07222 -47.96484,47.96094 c 59.48828,59.48828 155.9375,59.48828 215.42187,0 l -47.96093,-47.96485 c -33,33 -86.5,33 -119.4961,0.004 z m 0,0"
               fill-opacity="1"
               fill-rule="nonzero"
               id="path61" />
          </g>
        </g>
      </g>
      <g
         clip-path="url(#b903ff6f72)"
         id="g67">
        <g
           clip-path="url(#4c57588e41)"
           id="g66">
          <g
             clip-path="url(#10f5887c92)"
             id="g65">
            <path
               fill="#000000"
               d="m 323.12118,108.07222 -47.96094,47.96094 c 59.48437,59.48828 155.93359,59.48828 215.42187,0 l -47.96484,-47.96485 c -33,33 -86.5,33 -119.49609,0.004 z m 0,0"
               fill-opacity="1"
               fill-rule="nonzero"
               id="path64" />
          </g>
        </g>
      </g>
      <g
         clip-path="url(#60e2d9fbc6)"
         id="g70">
        <g
           clip-path="url(#386c7fe0ea)"
           id="g69">
          <g
             clip-path="url(#118fcd7e63)"
             id="g68">
            <path
               fill="#000000"
               d="m 275.85547,156.20312 47.96484,-47.96484 C 264.33203,48.75 167.88672,48.75 108.39844,108.23828 l 47.96484,47.96484 c 32.99609,-32.99999 86.49609,-32.99999 119.49219,0 z m 0,0"
               fill-opacity="1"
               fill-rule="nonzero"
               id="path67" />
          </g>
        </g>
      </g>
      <g
         clip-path="url(#e65b887c14)"
         id="g73">
        <g
           clip-path="url(#6d793d16e4)"
           id="g72">
          <g
             clip-path="url(#b94bf2deed)"
             id="g71">
            <path
               fill="#000000"
               d="m 944.98828,156.20312 47.96484,-47.96484 C 933.46484,48.75 837.01953,48.75 777.53125,108.23828 l 47.96484,47.96484 c 32.9961,-32.99999 86.4961,-32.99999 119.49219,0 z m 0,0"
               fill-opacity="1"
               fill-rule="nonzero"
               id="path70" />
          </g>
        </g>
      </g>
      <g
         clip-path="url(#9eed9ac781)"
         id="g76">
        <g
           clip-path="url(#9152a586e1)"
           id="g75">
          <g
             clip-path="url(#7084b3e8bc)"
             id="g74">
            <path
               fill="#000000"
               d="m 944.99219,275.69922 47.96484,47.96484 c 59.48827,-59.48828 59.48827,-155.93359 0,-215.42187 l -47.96484,47.96484 c 32.99609,32.99609 32.99609,86.49609 0,119.49219 z m 0,0"
               fill-opacity="1"
               fill-rule="nonzero"
               id="path73" />
          </g>
        </g>
      </g>
      <g
         clip-path="url(#dded3de882)"
         id="g79">
        <g
           clip-path="url(#4f08ad5eb0)"
           id="g78">
          <g
             clip-path="url(#5ebfb0b21a)"
             id="g77">
            <path
               fill="#000000"
               d="m 156.35937,156.20312 -47.96484,-47.96093 c -59.48828,59.48828 -59.48828,155.93359 0,215.42187 l 47.96484,-47.96484 c -32.99999,-32.9961 -32.99999,-86.4961 0,-119.4961 z m 0,0"
               fill-opacity="1"
               fill-rule="nonzero"
               id="path76" />
          </g>
        </g>
      </g>
      <g
         clip-path="url(#a79b4db542)"
         id="g85">
        <g
           clip-path="url(#f31d5af409)"
           id="g84">
          <g
             transform="translate(108,275)"
             id="g83">
            <g
               clip-path="url(#b01754e5bd)"
               id="g82">
              <g
                 clip-path="url(#905dae9086)"
                 id="g81">
                <g
                   clip-path="url(#f2bcb5bcdb)"
                   id="g80">
                  <path
                     fill="#000000"
                     d="M 0.398438,48.695312 48.230469,0.863281 200.51562,153.14453 152.67969,200.98047 Z m 0,0"
                     fill-opacity="1"
                     fill-rule="nonzero"
                     id="path79" />
                </g>
              </g>
            </g>
          </g>
        </g>
      </g>
      <g
         clip-path="url(#ba70d0f8e8)"
         id="g91">
        <g
           clip-path="url(#cfb8074eae)"
           id="g90">
          <g
             transform="translate(792,275)"
             id="g89">
            <g
               clip-path="url(#1eb45ed664)"
               id="g88">
              <g
                 clip-path="url(#743884fc31)"
                 id="g87">
                <g
                   clip-path="url(#d2d0aa55f1)"
                   id="g86">
                  <path
                     fill="#000000"
                     d="M 153.12109,0.867188 200.95703,48.703125 48.671875,200.98437 0.839844,153.15234 Z m 0,0"
                     fill-opacity="1"
                     fill-rule="nonzero"
                     id="path85" />
                </g>
              </g>
            </g>
          </g>
        </g>
      </g>
      <g
         clip-path="url(#aa64679e33)"
         id="g94">
        <g
           clip-path="url(#95eabb4892)"
           id="g93">
          <g
             clip-path="url(#1bce5d63ec)"
             id="g92">
            <path
               fill="#000000"
               d="m 499.74609,904.37891 -47.96093,47.96093 c 59.48437,59.48826 155.93359,59.48826 215.42187,0 L 619.24219,904.375 c -32.9961,33 -86.4961,33 -119.4961,0.004 z m 0,0"
               fill-opacity="1"
               fill-rule="nonzero"
               id="path91" />
          </g>
        </g>
      </g>
      <g
         clip-path="url(#9b17541f18)"
         id="g97">
        <g
           clip-path="url(#dafad07e6b)"
           id="g96">
          <g
             clip-path="url(#d165da6499)"
             id="g95">
            <path
               fill="#000000"
               d="m 450.76172,953.07031 47.96094,-47.96484 c -59.48438,-59.48828 -155.9336,-59.48828 -215.42188,0 l 47.96484,47.96484 c 33,-33 86.5,-33 119.4961,0 z m 0,0"
               fill-opacity="1"
               fill-rule="nonzero"
               id="path94" />
          </g>
        </g>
      </g>
      <g
         clip-path="url(#2740937368)"
         id="g100">
        <g
           clip-path="url(#5e6ddd2892)"
           id="g99">
          <g
             clip-path="url(#17bb4e9d15)"
             id="g98">
            <path
               fill="#000000"
               d="m 785.92187,953.07031 47.96094,-47.96484 c -59.48437,-59.48828 -155.93359,-59.48828 -215.42187,0 l 47.96484,47.96484 c 32.99609,-33 86.49609,-33 119.49609,0 z m 0,0"
               fill-opacity="1"
               fill-rule="nonzero"
               id="path97" />
          </g>
        </g>
      </g>
      <g
         clip-path="url(#21130dbe6b)"
         id="g103">
        <g
           clip-path="url(#b9dc49d027)"
           id="g102">
          <g
             clip-path="url(#624cc66e26)"
             id="g101">
            <path
               fill="#000000"
               d="m 834.30859,904.37891 -47.96484,47.96093 c 59.48828,59.48826 155.93359,59.48826 215.42185,0 L 953.80078,904.375 c -32.99609,33 -86.49609,33 -119.49219,0.004 z m 0,0"
               fill-opacity="1"
               fill-rule="nonzero"
               id="path100" />
          </g>
        </g>
      </g>
      <g
         clip-path="url(#8a52be41e7)"
         id="g106">
        <g
           clip-path="url(#1f69f5603a)"
           id="g105">
          <g
             clip-path="url(#4618351dad)"
             id="g104">
            <path
               fill="#000000"
               d="m 165.17578,904.37891 -47.96484,47.96093 c 59.48828,59.48826 155.93359,59.48826 215.42187,0 L 284.66797,904.375 c -32.9961,33 -86.4961,33 -119.49219,0.004 z m 0,0"
               fill-opacity="1"
               fill-rule="nonzero"
               id="path103" />
          </g>
        </g>
      </g>
      <g
         clip-path="url(#4525474ae4)"
         id="g109">
        <g
           clip-path="url(#9ead30c8cf)"
           id="g108">
          <g
             clip-path="url(#9b7b7b2e83)"
             id="g107">
            <path
               fill="#000000"
               d="m 165.17187,784.87891 -47.96484,-47.96485 c -59.48828,59.48828 -59.48828,155.9336 0,215.42188 L 165.17187,904.375 c -33,-33 -33,-86.5 0,-119.49609 z m 0,0"
               fill-opacity="1"
               fill-rule="nonzero"
               id="path106" />
          </g>
        </g>
      </g>
      <g
         clip-path="url(#e49a92380b)"
         id="g112">
        <g
           clip-path="url(#593e19ac79)"
           id="g111">
          <g
             clip-path="url(#d39396d18b)"
             id="g110">
            <path
               fill="#000000"
               d="m 953.80469,904.375 47.96481,47.96094 c 59.4883,-59.48438 59.4883,-155.9336 0,-215.42188 l -47.96481,47.96485 c 33,32.99609 33,86.49609 0,119.49609 z m 0,0"
               fill-opacity="1"
               fill-rule="nonzero"
               id="path109" />
          </g>
        </g>
      </g>
      <g
         clip-path="url(#aebf96780b)"
         id="g118">
        <g
           clip-path="url(#c152a8f59b)"
           id="g117">
          <g
             transform="translate(801,584)"
             id="g116">
            <g
               clip-path="url(#b3bb8817ac)"
               id="g115">
              <g
                 clip-path="url(#3fdccac047)"
                 id="g114">
                <g
                   clip-path="url(#83855f5b7a)"
                   id="g113">
                  <path
                     fill="#000000"
                     d="M 200.76172,152.88281 152.92969,200.71484 0.648438,48.433594 48.480469,0.597656 Z m 0,0"
                     fill-opacity="1"
                     fill-rule="nonzero"
                     id="path112" />
                </g>
              </g>
            </g>
          </g>
        </g>
      </g>
      <g
         clip-path="url(#08d0106373)"
         id="g124">
        <g
           clip-path="url(#cf818e1757)"
           id="g123">
          <g
             transform="translate(117,584)"
             id="g122">
            <g
               clip-path="url(#9e76343a83)"
               id="g121">
              <g
                 clip-path="url(#142ddeeba1)"
                 id="g120">
                <g
                   clip-path="url(#30abdf8675)"
                   id="g119">
                  <path
                     fill="#000000"
                     d="M 48.039062,200.71094 0.207031,152.875 152.48828,0.59375 200.32031,48.425781 Z m 0,0"
                     fill-opacity="1"
                     fill-rule="nonzero"
                     id="path118" />
                </g>
              </g>
            </g>
          </g>
        </g>
      </g>
    </g>
    <ellipse
       style="fill:#000000;stroke-width:0.75"
       id="path126"
       cx="497.92618"
       cy="60.805012"
       rx="14.012567"
       ry="12.891561" />
    <ellipse
       style="fill:#000000;stroke-width:0.75"
       id="path126-9"
       cx="554.59363"
       cy="62.62558"
       rx="14.012567"
       ry="12.891561" />
    <ellipse
       style="fill:#000000;stroke-width:0.75"
       id="path126-8"
       cx="545.42236"
       cy="170.07532"
       rx="14.012567"
       ry="12.891561" />
    <ellipse
       style="fill:#000000;stroke-width:0.75"
       id="path126-2"
       cx="502.87555"
       cy="171.10843"
       rx="14.012567"
       ry="12.891561" />
    <ellipse
       style="fill:#000000;stroke-width:0.75"
       id="path126-5"
       cx="450.06848"
       cy="214.08563"
       rx="14.012567"
       ry="12.891561" />
    <ellipse
       style="fill:#000000;stroke-width:0.75"
       id="path126-1"
       cx="381.01254"
       cy="238.14156"
       rx="14.012567"
       ry="12.891561" />
    <ellipse
       style="fill:#000000;stroke-width:0.75"
       id="path126-11"
       cx="299.26254"
       cy="226.14156"
       rx="14.012567"
       ry="12.891561" />
    <ellipse
       style="fill:#000000;stroke-width:0.75"
       id="path126-27"
       cx="372.76254"
       cy="121.14156"
       rx="14.012567"
       ry="12.891561" />
    <ellipse
       style="fill:#000000;stroke-width:0.75"
       id="path126-14"
       cx="323.26254"
       cy="118.89156"
       rx="14.012567"
       ry="12.891561" />
    <ellipse
       style="fill:#000000;stroke-width:0.75"
       id="path126-3"
       cx="275.26254"
       cy="72.391556"
       rx="14.012567"
       ry="12.891561" />
    <ellipse
       style="fill:#000000;stroke-width:0.75"
       id="path126-21"
       cx="171.01256"
       cy="46.89156"
       rx="14.012567"
       ry="12.891561" />
    <ellipse
       style="fill:#000000;stroke-width:0.75"
       id="path126-85"
       cx="84.76255"
       cy="74.641556"
       rx="14.012567"
       ry="12.891561" />
    <ellipse
       style="fill:#000000;stroke-width:0.75"
       id="path126-6"
       cx="21.012554"
       cy="142.14156"
       rx="14.012567"
       ry="12.891561" />
    <ellipse
       style="fill:#000000;stroke-width:0.75"
       id="path126-89"
       cx="5.2625532"
       cy="207.39156"
       rx="14.012567"
       ry="12.891561" />
    <ellipse
       style="fill:#000000;stroke-width:0.75"
       id="path126-7"
       cx="25.512554"
       cy="292.14154"
       rx="14.012567"
       ry="12.891561" />
    <ellipse
       style="fill:#000000;stroke-width:0.75"
       id="path126-54"
       cx="79.51255"
       cy="371.64154"
       rx="14.012567"
       ry="12.891561" />
    <ellipse
       style="fill:#000000;stroke-width:0.75"
       id="path126-12"
       cx="126.01255"
       cy="418.14154"
       rx="14.012567"
       ry="12.891561" />
    <ellipse
       style="fill:#000000;stroke-width:0.75"
       id="path126-34"
       cx="183.76256"
       cy="472.89154"
       rx="14.012567"
       ry="12.891561" />
    <ellipse
       style="fill:#000000;stroke-width:0.75"
       id="path126-13"
       cx="268.86758"
       cy="402.02054"
       rx="14.012567"
       ry="12.891561" />
    <ellipse
       style="fill:#000000;stroke-width:0.75"
       id="path126-74"
       cx="222.76256"
       cy="352.89154"
       rx="14.012567"
       ry="12.891561" />
    <ellipse
       style="fill:#000000;stroke-width:0.75"
       id="path126-77"
       cx="174.76256"
       cy="302.64154"
       rx="14.012567"
       ry="12.891561" />
    <ellipse
       style="fill:#000000;stroke-width:0.75"
       id="path126-31"
       cx="136.10159"
       cy="257.26254"
       rx="14.012567"
       ry="12.891561" />
    <ellipse
       style="fill:#000000;stroke-width:0.75"
       id="path126-86"
       cx="130.87556"
       cy="209.27853"
       rx="14.012567"
       ry="12.891561" />
    <ellipse
       style="fill:#000000;stroke-width:0.75"
       id="path126-0"
       cx="161.26256"
       cy="172.14156"
       rx="14.012567"
       ry="12.891561" />
    <ellipse
       style="fill:#000000;stroke-width:0.75"
       id="path126-860"
       cx="214.51256"
       cy="175.89156"
       rx="14.012567"
       ry="12.891561" />
    <ellipse
       style="fill:#000000;stroke-width:0.75"
       id="path126-4"
       cx="605.26257"
       cy="210.39156"
       rx="14.012567"
       ry="12.891561" />
    <ellipse
       style="fill:#000000;stroke-width:0.75"
       id="path126-65"
       cx="676.51257"
       cy="241.89156"
       rx="14.012567"
       ry="12.891561" />
    <ellipse
       style="fill:#000000;stroke-width:0.75"
       id="path126-90"
       cx="751.51257"
       cy="229.14156"
       rx="14.012567"
       ry="12.891561" />
    <ellipse
       style="fill:#000000;stroke-width:0.75"
       id="path126-61"
       cx="820.51257"
       cy="185.64156"
       rx="14.012567"
       ry="12.891561" />
    <ellipse
       style="fill:#000000;stroke-width:0.75"
       id="path126-893"
       cx="875.26257"
       cy="178.14156"
       rx="14.012567"
       ry="12.891561" />
    <ellipse
       style="fill:#000000;stroke-width:0.75"
       id="path126-46"
       cx="913.51257"
       cy="217.14156"
       rx="14.012567"
       ry="12.891561" />
    <ellipse
       style="fill:#000000;stroke-width:0.75"
       id="path126-66"
       cx="907.51257"
       cy="253.14156"
       rx="14.012567"
       ry="12.891561" />
    <ellipse
       style="fill:#000000;stroke-width:0.75"
       id="path126-84"
       cx="870.76257"
       cy="292.14154"
       rx="14.012567"
       ry="12.891561" />
    <ellipse
       style="fill:#000000;stroke-width:0.75"
       id="path126-63"
       cx="832.51257"
       cy="327.39154"
       rx="14.012567"
       ry="12.891561" />
    <ellipse
       style="fill:#000000;stroke-width:0.75"
       id="path126-88"
       cx="780.01257"
       cy="391.14154"
       rx="14.012567"
       ry="12.891561" />
    <ellipse
       style="fill:#000000;stroke-width:0.75"
       id="path126-91"
       cx="862.51257"
       cy="470.64154"
       rx="14.012567"
       ry="12.891561" />
    <ellipse
       style="fill:#000000;stroke-width:0.75"
       id="path126-59"
       cx="904.51257"
       cy="434.64154"
       rx="14.012567"
       ry="12.891561" />
    <ellipse
       style="fill:#000000;stroke-width:0.75"
       id="path126-40"
       cx="963.76251"
       cy="388.89154"
       rx="14.012567"
       ry="12.891561" />
    <ellipse
       style="fill:#000000;stroke-width:0.75"
       id="path126-636"
       cx="1013.2625"
       cy="312.39154"
       rx="14.012567"
       ry="12.891561" />
    <ellipse
       style="fill:#000000;stroke-width:0.75"
       id="path126-542"
       cx="1033.5126"
       cy="244.14156"
       rx="14.012567"
       ry="12.891561" />
    <ellipse
       style="fill:#000000;stroke-width:0.75"
       id="path126-97"
       cx="1013.2625"
       cy="160.89156"
       rx="14.012567"
       ry="12.891561" />
    <ellipse
       style="fill:#000000;stroke-width:0.75"
       id="path126-72"
       cx="945.01251"
       cy="72.391556"
       rx="14.012567"
       ry="12.891561" />
    <ellipse
       style="fill:#000000;stroke-width:0.75"
       id="path126-01"
       cx="852.76257"
       cy="45.39156"
       rx="14.012567"
       ry="12.891561" />
    <ellipse
       style="fill:#000000;stroke-width:0.75"
       id="path126-57"
       cx="778.51257"
       cy="61.14156"
       rx="14.012567"
       ry="12.891561" />
    <ellipse
       style="fill:#000000;stroke-width:0.75"
       id="path126-41"
       cx="723.01257"
       cy="115.14156"
       rx="14.012567"
       ry="12.891561" />
    <ellipse
       style="fill:#000000;stroke-width:0.75"
       id="path126-00"
       cx="660.76257"
       cy="109.89156"
       rx="14.012567"
       ry="12.891561" />
  </g>
</svg>
